<svg width="33" height="12" viewBox="0 0 33 12" fill="none" xmlns="http://www.w3.org/2000/svg">
<path fill-rule="evenodd" clip-rule="evenodd" d="M0.539453 1.12978C0.811739 0.649287 1.42199 0.480497 1.90249 0.752783L16.7914 9.18994C17.2719 9.46223 17.4407 10.0725 17.1684 10.553C16.8961 11.0335 16.2858 11.2023 15.8054 10.93L0.916454 2.49282C0.435956 2.22054 0.267167 1.61028 0.539453 1.12978Z" fill="white"/>
<path fill-rule="evenodd" clip-rule="evenodd" d="M32.316 1.12978C32.0437 0.649287 31.4335 0.480497 30.953 0.752783L16.0641 9.18994C15.5836 9.46223 15.4148 10.0725 15.6871 10.553C15.9594 11.0335 16.5696 11.2023 17.0501 10.93L31.939 2.49282C32.4195 2.22054 32.5883 1.61028 32.316 1.12978Z" fill="white"/>
</svg>
