<svg width="35" height="34" viewBox="0 0 35 34" fill="none" xmlns="http://www.w3.org/2000/svg">
<path fill-rule="evenodd" clip-rule="evenodd" d="M9.90889 2.58111C6.33886 2.58111 3.45611 5.47734 3.45611 9.03389V24.5206C3.45611 28.0906 6.35234 30.9733 9.90889 30.9733H25.3956C28.9656 30.9733 31.8483 28.0771 31.8483 24.5206V9.03389C31.8483 5.46386 28.9521 2.58111 25.3956 2.58111H9.90889ZM0.875 9.03389C0.875 4.05557 4.90962 0 9.90889 0H25.3956C30.3739 0 34.4294 4.03462 34.4294 9.03389V24.5206C34.4294 29.4989 30.3948 33.5544 25.3956 33.5544H9.90889C4.93057 33.5544 0.875 29.5198 0.875 24.5206V9.03389Z" fill="#96A5BA"/>
<path fill-rule="evenodd" clip-rule="evenodd" d="M14.813 18.3257C14.813 17.613 15.3908 17.0352 16.1035 17.0352H25.3955C26.1083 17.0352 26.6861 17.613 26.6861 18.3257C26.6861 19.0385 26.1083 19.6163 25.3955 19.6163H16.1035C15.3908 19.6163 14.813 19.0385 14.813 18.3257Z" fill="#96A5BA"/>
<path fill-rule="evenodd" clip-rule="evenodd" d="M17.9102 15.1595C17.9102 11.9236 20.5121 9.29175 23.7607 9.29175H25.3954C26.1081 9.29175 26.6859 9.86955 26.6859 10.5823C26.6859 11.2951 26.1081 11.8729 25.3954 11.8729H23.7607C21.9503 11.8729 20.4913 13.3364 20.4913 15.1595V32.2808C20.4913 32.9936 19.9135 33.5714 19.2007 33.5714C18.488 33.5714 17.9102 32.9936 17.9102 32.2808V15.1595Z" fill="#96A5BA"/>
</svg>
