<svg width="35" height="34" viewBox="0 0 35 34" fill="none" xmlns="http://www.w3.org/2000/svg">
<g clip-path="url(#clip0_1626_6802)">
<path d="M9.65837 1.29053H25.145C29.4125 1.29053 32.8884 4.74922 32.8884 9.03386V24.5205C32.8884 28.788 29.4297 32.2639 25.145 32.2639H9.65837C5.39094 32.2639 1.91504 28.8052 1.91504 24.5205V9.03386C1.91504 4.74922 5.37373 1.29053 9.65837 1.29053Z" stroke="#96A5BA" stroke-width="2.58111" stroke-linecap="round" stroke-linejoin="round"/>
<path d="M25.919 7.67456C25.5921 7.67456 25.334 7.93267 25.334 8.25961C25.334 8.56935 25.5921 8.84466 25.919 8.84466C26.246 8.84466 26.5041 8.58655 26.5041 8.25961C26.5041 7.93267 26.246 7.67456 25.919 7.67456Z" stroke="#96A5BA" stroke-width="2.58111" stroke-linecap="round" stroke-linejoin="round"/>
<path d="M11.207 16.7769C11.207 13.3527 13.9774 10.5823 17.4017 10.5823C20.826 10.5823 23.5964 13.3527 23.5964 16.7769C23.5964 20.2012 20.826 22.9716 17.4017 22.9716C13.9774 22.9716 11.207 20.2012 11.207 16.7769Z" stroke="#96A5BA" stroke-width="2.58111" stroke-linecap="round" stroke-linejoin="round"/>
</g>
<defs>
<clipPath id="clip0_1626_6802">
<rect width="33.5544" height="33.5544" fill="white" transform="translate(0.624512)"/>
</clipPath>
</defs>
</svg>
