<svg width="35" height="34" viewBox="0 0 35 34" fill="none" xmlns="http://www.w3.org/2000/svg">
<g clip-path="url(#clip0_1626_6794)">
<path fill-rule="evenodd" clip-rule="evenodd" d="M9.7834 2.58111C6.21338 2.58111 3.33062 5.47734 3.33062 9.03389V24.5206C3.33062 28.0906 6.22685 30.9733 9.7834 30.9733H25.2701C28.8401 30.9733 31.7228 28.0771 31.7228 24.5206V9.03389C31.7228 5.46386 28.8266 2.58111 25.2701 2.58111H9.7834ZM0.749512 9.03389C0.749512 4.05557 4.78413 0 9.7834 0H25.2701C30.2484 0 34.304 4.03462 34.304 9.03389V24.5206C34.304 29.4989 30.2693 33.5544 25.2701 33.5544H9.7834C4.80508 33.5544 0.749512 29.5198 0.749512 24.5206V9.03389Z" fill="#96A5BA"/>
<path fill-rule="evenodd" clip-rule="evenodd" d="M10.8506 13.9382C11.5634 13.9382 12.1412 14.516 12.1412 15.2288V24.5208C12.1412 25.2335 11.5634 25.8113 10.8506 25.8113C10.1379 25.8113 9.56006 25.2335 9.56006 24.5208V15.2288C9.56006 14.516 10.1379 13.9382 10.8506 13.9382Z" fill="#96A5BA"/>
<path fill-rule="evenodd" clip-rule="evenodd" d="M20.9171 16.5193C19.4961 16.5193 18.336 17.6795 18.336 19.1005V24.5208C18.336 25.2335 17.7582 25.8113 17.0454 25.8113C16.3327 25.8113 15.7549 25.2335 15.7549 24.5208V19.1005C15.7549 16.254 18.0706 13.9382 20.9171 13.9382C23.7636 13.9382 26.0793 16.254 26.0793 19.1005V24.5208C26.0793 25.2335 25.5015 25.8113 24.7888 25.8113C24.076 25.8113 23.4982 25.2335 23.4982 24.5208V19.1005C23.4982 17.6795 22.3381 16.5193 20.9171 16.5193Z" fill="#96A5BA"/>
<path fill-rule="evenodd" clip-rule="evenodd" d="M9.18194 10.0658C9.12946 9.02389 10.0039 8.32837 10.8503 8.32837C11.8228 8.32837 12.5366 9.13204 12.5366 10.0147C12.5366 10.895 11.8423 11.6838 10.8675 11.6838C9.98487 11.6838 9.20941 10.9964 9.18194 10.0658ZM9.9564 10.0543L10.4717 10.0147H9.95552C9.95552 9.79263 10.0404 9.56236 10.2137 9.38345C10.3885 9.20305 10.6221 9.10746 10.8503 9.10287C10.856 9.10276 10.8618 9.1027 10.8675 9.1027C11.2909 9.1027 11.7073 9.42705 11.7573 9.91581C11.7591 9.93358 11.7604 9.95157 11.7613 9.96978C11.7617 9.98491 11.7617 9.99988 11.7614 10.0147C11.7512 10.5685 11.2853 10.9004 10.8675 10.9093C10.8618 10.9094 10.856 10.9095 10.8503 10.9095C10.34 10.9095 9.9765 10.508 9.9564 10.0543Z" fill="#96A5BA"/>
</g>
<defs>
<clipPath id="clip0_1626_6794">
<rect width="33.5544" height="33.5544" fill="white" transform="translate(0.749512)"/>
</clipPath>
</defs>
</svg>
