<svg width="56" height="45" viewBox="0 0 56 45" fill="none" xmlns="http://www.w3.org/2000/svg">
<path fill-rule="evenodd" clip-rule="evenodd" d="M25.6309 0H0.950195V24.6807H14.2402C14.2397 24.6807 14.2395 24.6807 14.2395 24.6807C14.2395 24.6807 14.5306 27.4053 14.2395 29.1105C14.1786 29.467 14.1373 29.7727 14.1001 30.0486C13.9763 30.9652 13.8968 31.5541 13.2902 32.5912C12.539 33.8755 11.7821 34.7913 10.4425 35.4389C9.21367 36.033 6.96185 36.0718 6.96185 36.0718V44.9315C6.96185 44.9315 9.09651 44.8049 10.4425 44.6151C12.5333 44.3202 13.6387 44.0205 15.5052 43.033C18.1492 41.6341 19.6582 40.3138 21.5171 37.9703C22.9942 36.1081 24.4622 33.5404 24.6813 32.5912C24.7031 32.4968 24.7268 32.3962 24.7518 32.29C24.9785 31.3274 25.3141 29.9026 25.3141 28.4777C25.3141 27.3846 25.4652 26.1403 25.5586 25.3713C25.6003 25.0274 25.6306 24.7785 25.6306 24.6807C25.6306 24.6807 25.6306 24.6807 25.6306 24.6807H25.6309V0Z" fill="#76FFDE" fill-opacity="0.2"/>
<path fill-rule="evenodd" clip-rule="evenodd" d="M55.873 0H31.1924V24.6807H44.4823C44.4818 24.6807 44.4816 24.6807 44.4816 24.6807C44.4816 24.6807 44.7728 27.4053 44.4816 29.1105C44.4208 29.467 44.3795 29.7727 44.3422 30.0486C44.2184 30.9652 44.1389 31.5541 43.5324 32.5912C42.7811 33.8755 42.0242 34.7913 40.6846 35.4389C39.4558 36.033 37.204 36.0718 37.204 36.0718V44.9315C37.204 44.9315 39.3386 44.8049 40.6846 44.6151C42.7755 44.3202 43.8809 44.0205 45.7473 43.033C48.3913 41.6341 49.9003 40.3138 51.7592 37.9703C53.2363 36.1081 54.7044 33.5404 54.9234 32.5912C54.9452 32.4968 54.9689 32.3962 54.9939 32.29C55.2207 31.3274 55.5563 29.9026 55.5563 28.4777C55.5563 27.3846 55.7073 26.1403 55.8007 25.3713C55.8425 25.0274 55.8727 24.7785 55.8727 24.6807C55.8727 24.6807 55.8727 24.6807 55.8727 24.6807H55.873V0Z" fill="#76FFDE" fill-opacity="0.2"/>
</svg>