<svg width="34" height="30" viewBox="0 0 34 30" fill="none" xmlns="http://www.w3.org/2000/svg">
<path fill-rule="evenodd" clip-rule="evenodd" d="M4.46969 0.723283C4.91433 0.751401 5.31302 1.00687 5.52436 1.39908C7.06076 4.25043 9.70583 6.84479 12.575 8.03635C12.9238 6.19804 13.7426 4.56524 14.9774 3.3028C16.583 1.66124 18.8205 0.72071 21.4236 0.72071C23.1399 0.72071 24.5918 1.05077 25.8185 1.70488C26.8252 2.24163 27.6279 2.96868 28.2827 3.81804H32.2642C32.7402 3.81804 33.1775 4.08001 33.4021 4.49964C33.6267 4.91927 33.6021 5.42845 33.338 5.82447L30.4548 10.1493C30.3812 15.6437 28.7662 20.4705 25.6822 23.9657C22.5069 27.5644 17.8801 29.6291 12.1316 29.6291C8.7852 29.6291 6.35273 28.7476 4.45555 27.4044C2.60849 26.0967 1.34079 24.3956 0.267655 22.9309C0.221313 22.8707 0.179908 22.8057 0.144242 22.7365C0.0740794 22.6012 0.0300298 22.4574 0.0110681 22.3118C-0.0142713 22.1202 0.00450538 21.9295 0.0611672 21.7521C0.117532 21.5747 0.212511 21.4083 0.343982 21.2667C0.443678 21.1589 0.562795 21.0671 0.69833 20.9973C0.767442 20.9614 0.838757 20.9324 0.91139 20.9101L3.68755 19.9847C-0.648704 14.3856 -0.653717 6.84622 3.33829 1.26084C3.59735 0.898375 4.02505 0.695165 4.46969 0.723283ZM3.40505 22.7996C4.15532 23.7392 4.95581 24.5961 5.94703 25.2979C7.37949 26.312 9.28328 27.048 12.1316 27.048C17.2238 27.048 21.1146 25.2411 23.7468 22.258C26.3937 19.2581 27.8731 14.947 27.8763 9.77193C27.8745 9.64086 27.8925 9.50881 27.9314 9.38052C27.9702 9.2521 28.0285 9.13215 28.1029 9.02408L29.8528 6.39915H27.6182C27.1839 6.39915 26.7786 6.18065 26.54 5.81773C26.0069 5.00721 25.3836 4.39803 24.6042 3.98247C23.822 3.56541 22.8046 3.30182 21.4236 3.30182C19.4667 3.30182 17.9099 3.99599 16.8226 5.10762C15.7282 6.22653 15.0377 7.84326 14.97 9.79924C14.9566 10.1869 14.7695 10.548 14.4606 10.7825C14.1516 11.0171 13.7535 11.1002 13.3765 11.0089C9.80161 10.1432 6.55837 7.51122 4.40058 4.46882C1.90932 9.35787 2.63494 15.4261 6.85398 19.6872C7.16788 20.0043 7.29578 20.4609 7.1922 20.8949C7.08862 21.3288 6.76826 21.6785 6.34502 21.8196L3.40505 22.7996Z" fill="#96A5BA"/>
</svg>
