<svg width="38" height="32" viewBox="0 0 38 32" fill="none" xmlns="http://www.w3.org/2000/svg">
<g clip-path="url(#clip0_1626_6806)">
<path d="M35.6359 6.39924C35.2402 4.6785 34.0701 3.3019 32.5902 2.8373C29.9059 1.99414 19.1513 1.99414 19.1513 1.99414C19.1513 1.99414 8.39662 1.99414 5.71227 2.8373C4.23243 3.3019 3.06233 4.66129 2.66656 6.39924C1.94385 9.53098 1.94385 16.087 1.94385 16.087C1.94385 16.087 1.94385 22.6258 2.66656 25.7748C3.06233 27.4955 4.23243 28.8721 5.71227 29.3367C8.39662 30.1799 19.1513 30.1799 19.1513 30.1799C19.1513 30.1799 29.9231 30.1799 32.5902 29.3367C34.0701 28.8721 35.2402 27.5127 35.6359 25.7748C36.3587 22.643 36.3587 16.087 36.3587 16.087C36.3587 16.087 36.3587 9.54819 35.6359 6.39924Z" stroke="#96A5BA" stroke-width="2.58111" stroke-linecap="round" stroke-linejoin="round"/>
<path d="M15.71 21.249L24.6578 16.0868L15.71 10.9246V21.249Z" stroke="#96A5BA" stroke-width="2.58111" stroke-linecap="round" stroke-linejoin="round"/>
</g>
<defs>
<clipPath id="clip0_1626_6806">
<rect width="36.9959" height="30.7324" fill="white" transform="translate(0.65332 0.720703)"/>
</clipPath>
</defs>
</svg>
