<svg width="404" height="82" viewBox="0 0 404 82" fill="none" xmlns="http://www.w3.org/2000/svg">
<path d="M16.5113 81.9998C14.0336 81.9998 11.785 81.5731 9.74463 80.6992C7.70423 79.8457 5.97613 78.6467 4.53952 77.1225C3.10291 75.5983 1.99943 73.7897 1.20825 71.6965C0.417073 69.583 0.0214844 67.3069 0.0214844 64.8073C0.0214844 62.3076 0.417073 60.0519 1.22907 57.9587C2.04107 55.8655 3.14455 54.0772 4.58116 52.553C6.01777 51.0288 7.74587 49.8501 9.74463 48.9966C11.7434 48.1431 13.9295 47.7163 16.3031 47.7163C18.281 47.7163 20.1132 47.9805 21.8205 48.5292C23.5278 49.0779 25.0268 49.8501 26.3594 50.8866C27.671 51.9027 28.8162 53.1627 29.7323 54.6258C30.6692 56.089 31.3771 57.7555 31.8351 59.6251H29.0244C28.1915 56.5361 26.6508 54.1584 24.4022 52.492C22.1536 50.8256 19.4261 49.9924 16.1782 49.9924C14.2002 49.9924 12.4096 50.3582 10.7857 51.0898C9.16166 51.8214 7.76669 52.8578 6.57993 54.1584C5.39316 55.4591 4.47706 57.0239 3.83163 58.8122C3.18619 60.6006 2.85307 62.5718 2.85307 64.7057C2.85307 66.8395 3.18619 68.9123 3.83163 70.7617C4.47706 72.611 5.41398 74.1961 6.62157 75.5171C7.82915 76.838 9.26576 77.8744 10.9522 78.606C12.6387 79.3376 14.5125 79.7034 16.5946 79.7034C19.6968 79.7034 22.3618 78.8702 24.5896 77.2038C26.8174 75.5374 28.3581 73.0581 29.2326 69.7862H31.9392C31.4812 71.6762 30.7733 73.3832 29.8572 74.8667C28.9411 76.3706 27.8168 77.6509 26.4635 78.7076C25.1309 79.7644 23.6111 80.5773 21.9246 81.126C20.2381 81.6747 18.4268 81.9592 16.4905 81.9592L16.5113 81.9998Z" fill="#00204D"/>
<path d="M48.3253 48.2246H51.7815L65.877 81.492H62.9621L58.5482 70.9245H41.4962L37.1447 81.492H34.334L48.3253 48.2246ZM57.5904 68.6687L53.6345 59.2189C52.9058 57.4915 52.2188 55.8861 51.5941 54.4026C50.9695 52.919 50.4282 51.5168 49.9701 50.2162H49.9285C49.4913 51.5168 48.9499 52.98 48.2837 54.5651C47.6174 56.1706 46.9928 57.6541 46.4307 59.0157L42.4748 68.6484H57.6112L57.5904 68.6687Z" fill="#00204D"/>
<path d="M71.6445 48.2246H87.4889C89.1962 48.2246 90.6536 48.4888 91.9028 49.0172C93.1312 49.5456 94.1723 50.2365 94.9843 51.1307C95.7963 52.0045 96.4001 53.0206 96.7956 54.1587C97.1704 55.2967 97.3786 56.4957 97.3786 57.7354C97.3786 59.036 97.1704 60.2757 96.754 61.4543C96.3376 62.633 95.6922 63.6695 94.7969 64.5636C93.9016 65.4578 92.7981 66.1691 91.4656 66.6975C90.1331 67.2258 88.5507 67.49 86.6977 67.49H74.2679V81.5327H71.6653V48.2246H71.6445ZM86.6769 65.1123C89.3419 65.1123 91.3407 64.4214 92.6315 63.0395C93.9432 61.6576 94.5887 59.9099 94.5887 57.837C94.5887 55.7641 93.9432 53.9758 92.6524 52.6345C91.3615 51.2729 89.4668 50.6023 86.9684 50.6023H74.2471V65.1327H86.6769V65.1123Z" fill="#00204D"/>
<path d="M103.873 48.2246H106.58V81.492H103.873V48.2246Z" fill="#00204D"/>
<path d="M124.466 50.582H112.182V48.2246H139.456V50.582H127.172V81.492H124.466V50.582Z" fill="#00204D"/>
<path d="M150.991 48.2246H154.448L168.543 81.492H165.628L161.214 70.9245H144.162L139.811 81.492H137L150.991 48.2246ZM160.256 68.6687L156.301 59.2189C155.572 57.4915 154.885 55.8861 154.26 54.4026C153.636 52.919 153.094 51.5168 152.636 50.2162H152.595C152.157 51.5168 151.616 52.98 150.95 54.5651C150.283 56.1706 149.659 57.6541 149.097 59.0157L145.141 68.6484H160.277L160.256 68.6687Z" fill="#00204D"/>
<path d="M174.309 48.2246H176.974V79.155H196.42V81.5123H174.309V48.2246Z" fill="#00204D"/>
<path d="M313.598 33.6941H321.614V7.49876H331.858V0.467285H303.334V7.49876H313.598V33.6941Z" fill="#1C2747"/>
<path d="M285.531 34.4055C293.609 34.4055 300.397 29.1014 302.499 21.9277H294.567C292.922 25.3418 289.507 27.7601 285.531 27.7601C279.93 27.7601 275.474 23.0657 275.474 17.2332C275.474 11.4008 279.951 6.78763 285.593 6.78763C289.632 6.78763 293.172 9.16532 294.775 12.8233H302.604C300.605 5.46669 293.713 0.162598 285.593 0.162598C275.87 0.162598 267.938 7.84438 267.938 17.2942C267.938 26.744 275.87 34.4258 285.531 34.4258" fill="#1C2747"/>
<path d="M248.012 34.2631C257.152 34.2631 263.086 28.4713 263.086 21.1756V0.467285H255.299V20.0172C255.299 25.5245 251.906 27.6177 248.241 27.6177C244.577 27.6177 241.1 25.5245 241.1 20.0172V0.467285H233.084V21.2569C233.084 27.9429 238.872 34.2631 248.012 34.2631Z" fill="#1C2747"/>
<path d="M219.572 21.4398C226.235 19.7327 227.651 14.7944 227.651 10.8519C227.651 4.95849 224.007 0.467285 216.658 0.467285H197.836V33.6941H205.852V22.1104H211.307L219.906 33.6941H229.087L219.552 21.4601L219.572 21.4398ZM214.763 15.3634H205.873V7.25489H214.909C217.824 7.25489 219.323 8.8197 219.323 11.238C219.323 13.6564 217.907 15.3634 214.763 15.3634Z" fill="#1C2747"/>
<path d="M175.245 33.6941H183.261V7.49876H193.463V0.467285H164.98V7.49876H175.245V33.6941Z" fill="#1C2747"/>
<path d="M148.513 34.1614C157.361 34.1614 163.087 30.5644 163.087 23.289C163.087 17.2127 159.048 15.0382 153.26 14.0831L146.264 12.945C142.662 12.376 141.892 11.2786 141.892 9.85607C141.892 7.53934 143.974 6.15743 147.617 6.15743C150.969 6.15743 153.739 7.29548 154.467 10.5673H162.629C161.65 3.39362 155.425 -0.0205078 147.659 -0.0205078C139.248 -0.0205078 134.147 4.00328 134.147 10.3235C134.147 15.2618 137.311 18.5743 143.537 19.631L151.074 20.9113C153.593 21.3381 155.3 22.7607 155.3 24.5693C155.3 26.5609 153.301 27.9835 149.221 27.9835C145.14 27.9835 141.975 26.4593 141.496 23.5735H133.23C134.063 30.5441 139.643 34.1614 148.492 34.1614" fill="#1C2747"/>
<path d="M98.252 33.6941H105.622V12.6606L121.342 33.6941H127.984V0.467285H120.613V20.5456L105.726 0.467285H98.252V33.6941Z" fill="#1C2747"/>
<path d="M75.5991 0.14209C65.876 0.14209 57.9434 7.82387 57.9434 17.2737C57.9434 26.7235 65.876 34.4053 75.5991 34.4053C85.3223 34.4053 93.1924 26.7235 93.1924 17.2737C93.1924 7.82387 85.2598 0.14209 75.5991 0.14209ZM75.5575 27.7599C69.9568 27.7599 65.5012 23.0655 65.5012 17.233C65.5012 11.4006 69.9776 6.78744 75.5575 6.78744C81.1373 6.78744 85.6762 11.3803 85.6762 17.233C85.6762 23.0858 81.1582 27.7599 75.5575 27.7599Z" fill="#DB4E3D"/>
<path d="M39.0801 26.3781H47.0127L53.821 17.2738L47.0127 8.16943H39.0801L46.0757 17.2738L39.0801 26.3781Z" fill="#1C2747"/>
<path d="M17.5933 34.4053C25.6716 34.4053 32.4591 29.1012 34.5619 21.9275H26.6294C24.9845 25.3416 21.57 27.7599 17.5933 27.7599C11.9926 27.7599 7.537 23.0655 7.537 17.233C7.537 11.4006 12.0134 6.78744 17.6557 6.78744C21.6949 6.78744 25.2344 9.16514 26.8376 12.8231H34.666C32.6673 5.4665 25.7549 0.14209 17.6557 0.14209C7.93259 0.14209 0 7.82387 0 17.2737C0 26.7235 7.93259 34.4053 17.5933 34.4053Z" fill="#008CE2"/>
<path d="M394.485 21.4398C401.147 19.7327 402.563 14.7944 402.563 10.8519C402.563 4.95849 398.919 0.467285 391.57 0.467285H372.748V33.6941H380.764V22.1104H386.198L394.797 33.6941H403.979L394.443 21.4601L394.485 21.4398ZM389.675 15.3634H380.785V7.25489H389.821C392.736 7.25489 394.235 8.8197 394.235 11.238C394.235 13.6564 392.819 15.3634 389.675 15.3634Z" fill="#1C2747"/>
<path d="M350.283 0.14209C340.56 0.14209 332.627 7.82387 332.627 17.2737C332.627 26.7235 340.56 34.4053 350.283 34.4053C360.006 34.4053 367.876 26.7235 367.876 17.2737C367.876 7.82387 359.964 0.14209 350.283 0.14209ZM350.241 27.7599C344.64 27.7599 340.185 23.0655 340.185 17.233C340.185 11.4006 344.661 6.78744 350.241 6.78744C355.821 6.78744 360.36 11.3803 360.36 17.233C360.36 23.0858 355.842 27.7599 350.241 27.7599Z" fill="#1C2747"/>
</svg>
