<svg width="404" height="86" viewBox="0 0 404 86" fill="none" xmlns="http://www.w3.org/2000/svg">
<path d="M16.5935 85.1282C14.6156 85.1282 12.825 84.9173 11.1802 84.4953C9.5354 84.0734 8.09879 83.4404 6.87038 82.5965C5.64197 81.7526 4.64259 80.6767 3.91388 79.3686C3.18516 78.0606 2.72711 76.5415 2.56055 74.7694H5.30885C5.47541 76.1618 5.871 77.3855 6.51643 78.3981C7.14105 79.4108 7.95304 80.2547 8.95243 80.9087C9.93099 81.5628 11.0761 82.0269 12.3878 82.3434C13.6995 82.6598 15.1361 82.8075 16.6976 82.8075C18.0718 82.8075 19.3418 82.6598 20.5286 82.3645C21.7154 82.0691 22.7356 81.6472 23.5892 81.0564C24.4428 80.4868 25.1091 79.7484 25.588 78.8834C26.0668 78.0184 26.3167 76.9846 26.3167 75.8031C26.3167 74.1997 25.9836 72.9972 25.2965 72.1533C24.6094 71.3305 23.7558 70.6553 22.7147 70.1912C21.7154 69.6849 20.6327 69.3051 19.4668 69.073C18.3008 68.841 17.0516 68.5878 15.6982 68.3557C14.1367 68.0814 12.7626 67.8072 11.6174 67.554C10.4723 67.2797 9.32719 66.8578 8.18207 66.2881C6.91202 65.6552 5.91264 64.7691 5.18392 63.651C4.45521 62.5328 4.08044 61.1193 4.08044 59.3893C4.08044 57.8702 4.37193 56.4989 4.9549 55.2752C5.53787 54.0516 6.34987 53.0389 7.39089 52.2161C8.43191 51.3933 9.66032 50.7393 11.0761 50.2962C12.4919 49.8321 14.0326 49.6211 15.7191 49.6211C17.4055 49.6211 18.8421 49.811 20.2787 50.2118C21.7154 50.5916 22.9854 51.2034 24.1097 52.0051C25.234 52.8279 26.1501 53.8406 26.8997 55.0854C27.6284 56.3301 28.1072 57.8069 28.2946 59.5369H25.4839C25.3173 58.25 24.9425 57.1107 24.3804 56.1613C23.8182 55.2119 23.0895 54.4313 22.2151 53.7984C21.3406 53.1866 20.3412 52.7224 19.2169 52.4271C18.0718 52.1106 16.8642 51.9629 15.5525 51.9629C12.8458 51.9629 10.6805 52.6169 9.07735 53.925C7.47417 55.233 6.66218 56.9841 6.66218 59.1572C6.66218 60.3597 6.91202 61.3302 7.41171 62.0897C7.9114 62.8492 8.59848 63.4822 9.45212 63.9463C10.3058 64.4316 11.2843 64.7902 12.3878 65.0434C13.4913 65.2966 14.6572 65.5286 15.9065 65.7396C18.051 66.1194 19.904 66.4991 21.4655 66.8789C23.027 67.2586 24.3804 67.8283 25.4839 68.5878C26.5457 69.2629 27.4202 70.1279 28.0656 71.2039C28.711 72.2799 29.0442 73.7145 29.0442 75.5289C29.0442 77.1112 28.7319 78.5247 28.1072 79.7062C27.4826 80.9087 26.629 81.9214 25.5255 82.7231C24.422 83.5248 23.1103 84.1367 21.5904 84.5586C20.0705 84.9595 18.4049 85.1704 16.5935 85.1704V85.1282Z" fill="#00204D"/>
<path d="M44.202 52.5108H31.918V50.0635H59.1928V52.5108H46.9087V84.6001H44.202V52.5108Z" fill="#00204D"/>
<path d="M70.7277 50.0635H74.1839L88.2793 84.6001H85.3644L80.9505 73.6294H63.8986L59.5471 84.6001H56.7363L70.7277 50.0635ZM79.9928 71.2876L76.0369 61.4772C75.3082 59.684 74.6211 58.0173 73.9965 56.4771C73.3719 54.937 72.8305 53.4813 72.3725 52.131H72.3308C71.8936 53.4813 71.3523 55.0003 70.686 56.6459C70.0198 58.3126 69.3952 59.8527 68.833 61.2663L64.8771 71.2665H80.0136L79.9928 71.2876Z" fill="#00204D"/>
<path d="M94.0462 50.0635H109.537C111.431 50.0635 113.034 50.3377 114.325 50.9074C115.616 51.4559 116.657 52.1943 117.448 53.1015C118.26 54.0087 118.823 55.0214 119.176 56.1818C119.53 57.321 119.697 58.5236 119.697 59.7262C119.697 60.8865 119.53 62.0047 119.218 63.0807C118.906 64.1566 118.385 65.1482 117.657 66.0343C116.928 66.9204 116.012 67.6799 114.846 68.3129C113.701 68.9458 112.306 69.3888 110.661 69.6209L120.78 84.6001H117.615L107.85 69.9796H96.6279V84.6001H94.0254V50.0635H94.0462ZM107.933 67.5322C109.641 67.5322 111.057 67.3213 112.222 66.8782C113.368 66.4352 114.305 65.8444 114.971 65.1271C115.658 64.3887 116.158 63.587 116.449 62.6587C116.741 61.7304 116.907 60.8021 116.907 59.8105C116.907 58.819 116.761 57.954 116.491 57.0679C116.199 56.1818 115.762 55.4012 115.137 54.726C114.513 54.0509 113.701 53.5024 112.701 53.1015C111.702 52.7007 110.474 52.4897 109.037 52.4897H96.6488V67.5322H107.933Z" fill="#00204D"/>
<path d="M136.436 52.5108H124.152V50.0635H151.427V52.5108H139.143V84.6001H136.436V52.5108Z" fill="#00204D"/>
<path d="M185.301 85.1281C182.761 85.1281 180.449 84.685 178.367 83.8411C176.285 82.9761 174.474 81.7736 172.975 80.2334C171.476 78.6933 170.31 76.8578 169.498 74.727C168.686 72.5961 168.27 70.2332 168.27 67.6593C168.27 65.0854 168.686 62.5326 169.519 60.3174C170.352 58.1021 171.518 56.2033 173.037 54.5999C174.536 53.0176 176.327 51.7729 178.43 50.8868C180.512 50.0007 182.823 49.5576 185.321 49.5576C187.258 49.5576 189.048 49.8108 190.714 50.296C192.359 50.7813 193.837 51.4986 195.149 52.4058C196.46 53.313 197.564 54.4311 198.501 55.7181C199.438 57.005 200.146 58.4186 200.666 59.9798H197.751C196.877 57.5325 195.357 55.5704 193.171 54.0936C190.985 52.6379 188.361 51.8994 185.321 51.8994C183.219 51.8994 181.303 52.2792 179.554 53.0176C177.826 53.756 176.306 54.8109 175.036 56.1822C173.766 57.5325 172.788 59.1781 172.08 61.098C171.372 63.0178 171.018 65.1487 171.018 67.4905C171.018 69.8324 171.372 71.8577 172.101 73.7354C172.808 75.6131 173.829 77.2376 175.099 78.5667C176.39 79.917 177.93 80.9508 179.742 81.6681C181.553 82.3854 183.531 82.7651 185.696 82.7651C187.466 82.7651 189.111 82.4909 190.631 81.9212C192.151 81.3516 193.504 80.5288 194.67 79.3895C195.836 78.2714 196.794 76.8789 197.522 75.2122C198.251 73.5455 198.73 71.6046 198.917 69.4104H186.737V67.1741H201.874V84.6006H199.875L199.667 74.3472C198.73 77.8705 197.002 80.5499 194.503 82.3643C192.005 84.1998 188.923 85.107 185.28 85.107L185.301 85.1281Z" fill="#00204D"/>
<path d="M221.009 50.0635H224.465L238.561 84.6001H235.646L231.232 73.6294H214.18L209.828 84.6001H207.018L221.009 50.0635ZM230.274 71.2876L226.318 61.4772C225.589 59.684 224.902 58.0173 224.278 56.4771C223.653 54.937 223.112 53.4813 222.654 52.131H222.612C222.175 53.4813 221.634 55.0003 220.967 56.6459C220.301 58.3126 219.676 59.8527 219.114 61.2663L215.158 71.2665H230.295L230.274 71.2876Z" fill="#00204D"/>
<path d="M244.327 50.0635H259.818C261.713 50.0635 263.316 50.3377 264.607 50.9074C265.897 51.4559 266.938 52.1943 267.73 53.1015C268.542 54.0087 269.104 55.0214 269.458 56.1818C269.812 57.321 269.978 58.5236 269.978 59.7262C269.978 60.8865 269.812 62.0047 269.499 63.0807C269.187 64.1566 268.667 65.1482 267.938 66.0343C267.209 66.9204 266.293 67.6799 265.127 68.3129C263.982 68.9458 262.587 69.3888 260.942 69.6209L271.061 84.6001H267.896L258.131 69.9796H246.909V84.6001H244.307V50.0635H244.327ZM258.215 67.5322C259.922 67.5322 261.338 67.3213 262.504 66.8782C263.649 66.4352 264.586 65.8444 265.252 65.1271C265.939 64.3887 266.439 63.587 266.73 62.6587C267.022 61.7304 267.188 60.8021 267.188 59.8105C267.188 58.819 267.043 57.954 266.772 57.0679C266.48 56.1818 266.043 55.4012 265.419 54.726C264.794 54.0509 263.982 53.5024 262.983 53.1015C261.983 52.7007 260.755 52.4897 259.318 52.4897H246.93V67.5322H258.215Z" fill="#00204D"/>
<path d="M278.619 50.127H290.841C293.547 50.127 295.942 50.5489 298.003 51.3717C300.085 52.1945 301.813 53.376 303.208 54.8739C304.603 56.3718 305.665 58.1862 306.373 60.2749C307.081 62.3846 307.435 64.6843 307.435 67.1738C307.435 69.6633 307.06 71.9418 306.31 74.0516C305.561 76.1613 304.478 77.9968 303.062 79.558C301.647 81.1192 299.877 82.3429 297.795 83.2501C295.713 84.1362 293.318 84.6003 290.653 84.6003H278.619V50.127ZM290.341 82.2796C292.715 82.2796 294.797 81.8999 296.587 81.1192C298.378 80.3386 299.856 79.2627 301.043 77.9124C302.23 76.5622 303.125 74.9799 303.729 73.1655C304.332 71.3511 304.624 69.389 304.624 67.3004C304.624 65.064 304.332 63.0386 303.729 61.2032C303.125 59.3677 302.23 57.8065 301.043 56.4773C299.856 55.1482 298.378 54.1355 296.587 53.4393C294.797 52.722 292.715 52.3844 290.341 52.3844H281.222V82.3007H290.341V82.2796Z" fill="#00204D"/>
<path d="M314.971 50.0635H337.873V52.5108H317.573V65.9288H331.356V68.3761H317.573V82.1317H338.373V84.6213H314.971V50.0635Z" fill="#00204D"/>
<path d="M344.557 50.0635H348.367L364.003 73.0176C364.981 74.4733 365.918 75.9291 366.855 77.3637C367.792 78.7983 368.688 80.1908 369.562 81.5621H369.666C369.624 79.2836 369.604 77.1738 369.562 75.2118C369.52 73.2497 369.52 71.1399 369.52 68.9036V50.0635H372.081V84.6001H368.563L354.384 63.7347C353.155 61.8992 351.906 60.0848 350.657 58.2493C349.408 56.4138 348.2 54.5362 347.013 52.553H346.909C346.951 53.7766 346.972 55.0636 346.993 56.4349C346.993 57.8063 347.013 59.1776 347.013 60.5701V84.6001H344.557V50.0635Z" fill="#00204D"/>
<path d="M313.598 34.9789H321.614V7.78412H331.858V0.484375H303.334V7.78412H313.598V34.9789Z" fill="#1C2747"/>
<path d="M285.531 35.7173C293.609 35.7173 300.397 30.2109 302.499 22.7634H294.567C292.922 26.3078 289.507 28.8184 285.531 28.8184C279.93 28.8184 275.474 23.9449 275.474 17.8899C275.474 11.8349 279.951 7.04577 285.593 7.04577C289.632 7.04577 293.172 9.51418 294.775 13.3117H302.604C300.605 5.67443 293.713 0.167969 285.593 0.167969C275.87 0.167969 267.938 8.14284 267.938 17.9532C267.938 27.7636 275.87 35.7384 285.531 35.7384" fill="#1C2747"/>
<path d="M248.012 35.5696C257.152 35.5696 263.086 29.5568 263.086 21.9828V0.484375H255.299V20.7802C255.299 26.4976 251.906 28.6707 248.241 28.6707C244.577 28.6707 241.1 26.4976 241.1 20.7802V0.484375H233.084V22.0672C233.084 29.0083 238.872 35.5696 248.012 35.5696Z" fill="#1C2747"/>
<path d="M219.572 22.257C226.235 20.4848 227.651 15.3581 227.651 11.2652C227.651 5.14693 224.007 0.484375 216.658 0.484375H197.836V34.9789H205.852V22.9533H211.307L219.906 34.9789H229.087L219.552 22.2781L219.572 22.257ZM214.763 15.9489H205.873V7.53095H214.909C217.824 7.53095 219.323 9.15546 219.323 11.6661C219.323 14.1767 217.907 15.9489 214.763 15.9489Z" fill="#1C2747"/>
<path d="M175.245 34.9789H183.261V7.78412H193.463V0.484375H164.98V7.78412H175.245V34.9789Z" fill="#1C2747"/>
<path d="M148.513 35.4646C157.361 35.4646 163.087 31.7303 163.087 24.1774C163.087 17.8692 159.048 15.6118 153.26 14.6202L146.264 13.4387C142.662 12.848 141.892 11.7087 141.892 10.2319C141.892 7.8268 143.974 6.39217 147.617 6.39217C150.969 6.39217 153.739 7.57363 154.467 10.9703H162.629C161.65 3.5229 155.425 -0.0214844 147.659 -0.0214844C139.248 -0.0214844 134.147 4.15583 134.147 10.7172C134.147 15.8439 137.311 19.2828 143.537 20.3798L151.074 21.709C153.593 22.152 155.3 23.6289 155.3 25.5065C155.3 27.5741 153.301 29.0509 149.221 29.0509C145.14 29.0509 141.975 27.4686 141.496 24.4728H133.23C134.063 31.7092 139.643 35.4646 148.492 35.4646" fill="#1C2747"/>
<path d="M98.252 34.9789H105.622V13.1429L121.342 34.9789H127.984V0.484375H120.613V21.3287L105.726 0.484375H98.252V34.9789Z" fill="#1C2747"/>
<path d="M75.5991 0.147461C65.876 0.147461 57.9434 8.12233 57.9434 17.9327C57.9434 27.743 65.876 35.7179 75.5991 35.7179C85.3223 35.7179 93.1924 27.743 93.1924 17.9327C93.1924 8.12233 85.2598 0.147461 75.5991 0.147461ZM75.5575 28.819C69.9568 28.819 65.5012 23.9455 65.5012 17.8905C65.5012 11.8355 69.9776 7.04636 75.5575 7.04636C81.1373 7.04636 85.6762 11.8144 85.6762 17.8905C85.6762 23.9666 81.1582 28.819 75.5575 28.819Z" fill="#DB4E3D"/>
<path d="M39.0801 27.3839H47.0127L53.821 17.9322L47.0127 8.48047H39.0801L46.0757 17.9322L39.0801 27.3839Z" fill="#1C2747"/>
<path d="M17.5933 35.7179C25.6716 35.7179 32.4591 30.2115 34.562 22.764H26.6294C24.9845 26.3084 21.57 28.819 17.5933 28.819C11.9926 28.819 7.537 23.9455 7.537 17.8905C7.537 11.8355 12.0134 7.04636 17.6557 7.04636C21.6949 7.04636 25.2344 9.51477 26.8376 13.3123H34.666C32.6673 5.67502 25.7549 0.147461 17.6557 0.147461C7.93259 0.147461 0 8.12233 0 17.9327C0 27.743 7.93259 35.7179 17.5933 35.7179Z" fill="#008CE2"/>
<path d="M394.485 22.257C401.147 20.4848 402.563 15.3581 402.563 11.2652C402.563 5.14693 398.919 0.484375 391.57 0.484375H372.748V34.9789H380.764V22.9533H386.198L394.797 34.9789H403.979L394.443 22.2781L394.485 22.257ZM389.675 15.9489H380.785V7.53095H389.821C392.736 7.53095 394.235 9.15546 394.235 11.6661C394.235 14.1767 392.819 15.9489 389.675 15.9489Z" fill="#1C2747"/>
<path d="M350.283 0.147461C340.56 0.147461 332.627 8.12233 332.627 17.9327C332.627 27.743 340.56 35.7179 350.283 35.7179C360.006 35.7179 367.876 27.743 367.876 17.9327C367.876 8.12233 359.964 0.147461 350.283 0.147461ZM350.241 28.819C344.64 28.819 340.185 23.9455 340.185 17.8905C340.185 11.8355 344.661 7.04636 350.241 7.04636C355.821 7.04636 360.36 11.8144 360.36 17.8905C360.36 23.9666 355.842 28.819 350.241 28.819Z" fill="#1C2747"/>
</svg>
