<svg width="171" height="41" viewBox="0 0 171 41" fill="none" xmlns="http://www.w3.org/2000/svg">
<g clip-path="url(#clip0_2613_89757)">
<path d="M4.31713 38.0489C3.79112 38.0489 3.31953 37.9669 2.90236 37.7989C2.48518 37.6309 2.13149 37.3973 1.84128 37.0982L1.76419 37.93H0.830078V29.1895H1.84128V32.521C2.14056 32.2054 2.50332 31.9596 2.9341 31.7874C3.36488 31.6153 3.841 31.5334 4.36701 31.5334C4.84767 31.5334 5.30112 31.6071 5.71376 31.7588C6.13094 31.9104 6.48917 32.1276 6.78391 32.4144C7.07866 32.7013 7.31899 33.0414 7.48676 33.443C7.65454 33.8445 7.74523 34.2953 7.74523 34.7911C7.74523 35.2583 7.66361 35.6926 7.49583 36.0942C7.32805 36.4958 7.09226 36.84 6.79298 37.1269C6.48917 37.4178 6.12641 37.6432 5.70923 37.803C5.28752 37.9669 4.825 38.0448 4.31259 38.0448L4.31713 38.0489ZM4.22644 37.217C4.58467 37.217 4.91569 37.1596 5.21497 37.0408C5.51424 36.922 5.76818 36.7581 5.98583 36.545C6.19896 36.3319 6.36673 36.0778 6.48463 35.7828C6.60253 35.4877 6.66148 35.1599 6.66148 34.8075C6.66148 34.4551 6.60253 34.1232 6.48463 33.824C6.36673 33.5249 6.19896 33.2667 5.97677 33.0537C5.75911 32.8406 5.50064 32.6726 5.20136 32.5496C4.90208 32.4267 4.58013 32.3652 4.22644 32.3652C3.85007 32.3652 3.50545 32.4267 3.20164 32.5496C2.89329 32.6726 2.63482 32.8406 2.41716 33.0537C2.20404 33.2667 2.03626 33.5249 1.91836 33.824C1.80047 34.1232 1.74152 34.451 1.74152 34.8075C1.74152 35.164 1.80047 35.4877 1.91836 35.7828C2.03626 36.0778 2.20404 36.3319 2.41716 36.545C2.63029 36.7581 2.89329 36.922 3.20164 37.0408C3.50998 37.1596 3.85007 37.217 4.22644 37.217Z" fill="white"/>
<path d="M14.8096 31.6478L12.0344 38.6387C11.912 38.9378 11.7805 39.1878 11.6399 39.3804C11.4994 39.573 11.3406 39.7287 11.1683 39.8434C10.9915 39.9582 10.792 40.0401 10.5698 40.0893C10.3476 40.1344 10.0937 40.1589 9.81251 40.1589H9.2457V39.3271H9.68101C10.0392 39.3271 10.3204 39.2697 10.5154 39.1591C10.7103 39.0484 10.8827 38.8149 11.0232 38.4625L11.2454 37.9338L8.38867 31.6437H9.53137L11.0051 35.0203C11.1003 35.2416 11.1865 35.4383 11.2545 35.6022C11.3225 35.7702 11.386 35.9177 11.4449 36.053C11.5039 36.1882 11.5538 36.3111 11.5946 36.4218C11.6399 36.5324 11.6807 36.643 11.7261 36.7537H11.7669C11.8032 36.643 11.8394 36.5365 11.8803 36.4341C11.9211 36.3316 11.9619 36.221 12.0072 36.1062C12.0526 35.9915 12.0979 35.8686 12.1433 35.7374C12.1931 35.6063 12.2476 35.4547 12.3065 35.2785L13.7031 31.6396H14.8096V31.6478Z" fill="white"/>
<path d="M23.5708 38.0492C22.9315 38.0492 22.3465 37.9467 21.8205 37.7418C21.2945 37.5369 20.8411 37.246 20.4647 36.8813C20.0883 36.5125 19.7936 36.074 19.585 35.5618C19.3764 35.0496 19.2676 34.4882 19.2676 33.8776C19.2676 33.267 19.3719 32.7097 19.585 32.2016C19.7981 31.6935 20.0929 31.255 20.4738 30.8862C20.8547 30.5174 21.3081 30.2306 21.8296 30.0298C22.3511 29.829 22.9224 29.7266 23.5482 29.7266C24.6092 29.7266 25.4935 29.9847 26.2054 30.501C26.9173 31.0174 27.398 31.7345 27.6519 32.6524H26.5092C26.3006 31.9885 25.9333 31.4763 25.4164 31.1239C24.8995 30.7715 24.2692 30.5953 23.521 30.5953C23.072 30.5953 22.6594 30.6731 22.283 30.833C21.9067 30.9928 21.5802 31.2141 21.3036 31.505C21.027 31.7959 20.8139 32.1402 20.6597 32.5376C20.5055 32.9392 20.4284 33.3777 20.4284 33.853C20.4284 34.3284 20.5055 34.7955 20.6642 35.2012C20.8229 35.611 21.0406 35.9593 21.3217 36.2543C21.6029 36.5494 21.9384 36.7748 22.3329 36.9387C22.7274 37.1026 23.1627 37.1804 23.6343 37.1804C24.3644 37.1804 24.9765 37.0042 25.4844 36.6477C25.9877 36.2912 26.3414 35.7544 26.5455 35.0414H27.6519C27.5476 35.4921 27.3753 35.906 27.1304 36.2789C26.8901 36.6518 26.5954 36.9673 26.2507 37.2296C25.9061 37.4919 25.5071 37.6927 25.0536 37.8361C24.6002 37.9795 24.1105 38.0492 23.5754 38.0492H23.5708Z" fill="white"/>
<path d="M32.4861 38.0475C31.9691 38.0475 31.493 37.9656 31.0577 37.8057C30.6224 37.6418 30.2506 37.4165 29.9331 37.1296C29.6157 36.8387 29.3709 36.4945 29.1986 36.097C29.0217 35.6954 28.9355 35.261 28.9355 34.7939C28.9355 34.3267 29.0217 33.8924 29.1986 33.4908C29.3754 33.0892 29.6203 32.745 29.9331 32.454C30.2506 32.1631 30.6224 31.9377 31.0577 31.7779C31.493 31.614 31.9691 31.5361 32.4861 31.5361C33.003 31.5361 33.4791 31.6181 33.9145 31.7779C34.3498 31.9418 34.7216 32.1672 35.039 32.454C35.3564 32.745 35.6013 33.0892 35.7827 33.4908C35.9641 33.8924 36.0502 34.3267 36.0502 34.7939C36.0502 35.261 35.9595 35.6954 35.7827 36.097C35.6013 36.4985 35.3564 36.8428 35.039 37.1296C34.7216 37.4165 34.3498 37.6459 33.9145 37.8057C33.4791 37.9697 33.003 38.0475 32.4861 38.0475ZM32.4997 37.2157C32.8488 37.2157 33.1753 37.1583 33.4791 37.0436C33.783 36.9288 34.0414 36.7608 34.2636 36.5477C34.4813 36.3305 34.6536 36.0765 34.776 35.7773C34.8984 35.4782 34.9619 35.1504 34.9619 34.7939C34.9619 34.4374 34.8984 34.1054 34.776 33.8063C34.6536 33.5072 34.4813 33.249 34.2636 33.0359C34.046 32.8187 33.783 32.6548 33.4791 32.5401C33.1753 32.4254 32.8443 32.368 32.4861 32.368C32.1279 32.368 31.7968 32.4254 31.493 32.5401C31.1892 32.6548 30.9307 32.8187 30.7176 33.0359C30.5045 33.2531 30.3322 33.5072 30.2097 33.8063C30.0873 34.1054 30.0238 34.4333 30.0238 34.7939C30.0238 35.1545 30.0873 35.4823 30.2097 35.7773C30.3322 36.0765 30.5045 36.3346 30.7221 36.5477C30.9398 36.7608 31.2028 36.9288 31.5066 37.0436C31.8104 37.1583 32.1415 37.2157 32.4997 37.2157Z" fill="white"/>
<path d="M37.7598 31.6481H38.6939L38.7483 32.5292H38.7891C39.0521 32.1972 39.3831 31.9473 39.7822 31.7793C40.1812 31.6113 40.6211 31.5293 41.1062 31.5293C41.3874 31.5293 41.6776 31.5662 41.9769 31.644C42.2762 31.7178 42.5482 31.8489 42.7976 32.0292C43.047 32.2095 43.2556 32.4595 43.4143 32.7709C43.5776 33.0824 43.6592 33.4839 43.6592 33.9675V37.9259H42.6208V34.1314C42.6208 33.5044 42.4575 33.0537 42.1356 32.775C41.8091 32.4964 41.3965 32.357 40.8841 32.357C40.6029 32.357 40.3354 32.398 40.0814 32.4759C39.8275 32.5537 39.6053 32.6767 39.4149 32.8406C39.2244 33.0045 39.0793 33.2053 38.9659 33.4471C38.8571 33.6888 38.8027 33.9757 38.8027 34.3076V37.9218H37.7643V31.644L37.7598 31.6481Z" fill="white"/>
<path d="M46.269 36.1108C46.337 36.4919 46.532 36.7869 46.8494 36.9959C47.1668 37.2049 47.652 37.3115 48.3095 37.3115C48.8265 37.3115 49.2346 37.2213 49.5248 37.0369C49.8195 36.8566 49.9646 36.5903 49.9646 36.2419C49.9646 35.8363 49.7425 35.5576 49.2935 35.3978C49.1348 35.3322 48.9625 35.2872 48.7811 35.2544C48.5998 35.2216 48.3685 35.1888 48.0964 35.1478C47.7881 35.0987 47.5296 35.0577 47.312 35.0249C47.0988 34.988 46.8766 34.9347 46.6454 34.8651C46.5229 34.8241 46.396 34.7708 46.2645 34.6971C46.133 34.6233 46.006 34.5332 45.8881 34.4184C45.7702 34.3037 45.675 34.1644 45.5979 33.9964C45.5253 33.8283 45.4845 33.6317 45.4845 33.4022C45.4845 33.1235 45.5435 32.8695 45.6614 32.64C45.7793 32.4105 45.9471 32.2138 46.1692 32.0458C46.3869 31.8778 46.6544 31.7508 46.9673 31.6606C47.2802 31.5705 47.6339 31.5254 48.0284 31.5254C48.3776 31.5254 48.7131 31.5623 49.0305 31.6319C49.348 31.7016 49.6291 31.8163 49.8785 31.972C50.1279 32.1278 50.3365 32.3286 50.4952 32.5703C50.6584 32.8162 50.7582 33.1194 50.7899 33.4759H49.7651C49.7016 33.0621 49.5203 32.7588 49.2119 32.5621C48.9036 32.3654 48.4955 32.2671 47.9876 32.2671C47.4797 32.2671 47.0716 32.3736 46.8177 32.5826C46.5638 32.7916 46.4368 33.0334 46.4368 33.3038C46.4368 33.5251 46.5048 33.7013 46.6408 33.8283C46.7769 33.9554 46.9492 34.0496 47.1623 34.1152C47.3709 34.1808 47.6112 34.234 47.8742 34.275C48.1372 34.3201 48.3957 34.3611 48.6496 34.3979C48.9036 34.4389 49.1711 34.4881 49.4522 34.5455C49.7334 34.6069 49.9783 34.7012 50.1868 34.8364C50.4136 34.9634 50.595 35.1355 50.731 35.3609C50.867 35.5863 50.935 35.8486 50.935 36.1559C50.935 36.7665 50.6902 37.2377 50.2004 37.5696C49.7107 37.9015 49.0487 38.0696 48.2143 38.0696C47.2485 38.0696 46.532 37.8933 46.065 37.5409C45.5934 37.1885 45.3258 36.7132 45.2578 36.119H46.269V36.1108Z" fill="white"/>
<path d="M53.1541 37.5361C52.9047 37.2738 52.7777 36.8846 52.7777 36.3723V32.4262H51.8164V31.6517H52.7913V30.3076H53.8297V31.6517H55.4214V32.4262H53.8161V36.2084C53.8161 36.4994 53.8842 36.7288 54.0202 36.8928C54.1562 37.0567 54.3965 37.1345 54.7366 37.1345H55.435V37.9295H54.4328C53.8297 37.9295 53.399 37.7984 53.1496 37.5361H53.1541Z" fill="white"/>
<path d="M56.8438 31.6484H57.8187L57.8459 32.7794H57.8867C58.2993 32.0254 58.975 31.6484 59.9136 31.6484H60.3217V32.5745H59.7413C59.5055 32.5745 59.2743 32.6114 59.0566 32.6811C58.8389 32.7507 58.6394 32.8696 58.4626 33.0335C58.2857 33.1974 58.1452 33.4105 58.0409 33.6809C57.9366 33.9514 57.8822 34.2874 57.8822 34.6931V37.9262H56.8438V31.6484Z" fill="white"/>
<path d="M67.5165 37.9301H66.5688L66.5144 37.0491H66.4736C66.2106 37.381 65.8796 37.631 65.4805 37.799C65.0815 37.967 64.6462 38.049 64.1701 38.049C63.8889 38.049 63.5987 38.0121 63.2949 37.9424C62.9911 37.8728 62.7145 37.7417 62.4651 37.5573C62.2157 37.3729 62.0071 37.1229 61.8484 36.8074C61.6851 36.4959 61.6035 36.0943 61.6035 35.6108V31.6523H62.6419V35.4469C62.6419 35.7624 62.6873 36.0329 62.7734 36.2542C62.8596 36.4754 62.982 36.6598 63.1362 36.8033C63.2904 36.9467 63.4717 37.0532 63.6894 37.1188C63.9025 37.1844 64.1383 37.2212 64.3922 37.2212C64.6734 37.2212 64.9364 37.1803 65.1903 37.1024C65.4397 37.0245 65.6574 36.9016 65.8478 36.7377C66.0383 36.5738 66.1834 36.373 66.2967 36.1312C66.4056 35.8895 66.46 35.6026 66.46 35.2707V31.6564H67.512V37.9342L67.5165 37.9301Z" fill="white"/>
<path d="M72.6688 38.0475C72.1519 38.0475 71.6803 37.9656 71.2541 37.8057C70.8278 37.6418 70.465 37.4165 70.1612 37.1296C69.8574 36.8387 69.6216 36.4945 69.4584 36.097C69.2906 35.6954 69.209 35.261 69.209 34.7939C69.209 34.3267 69.2951 33.8924 69.472 33.4908C69.6488 33.0892 69.8892 32.745 70.202 32.454C70.5149 32.1631 70.8822 31.9377 71.3085 31.7779C71.7347 31.614 72.2018 31.5361 72.7096 31.5361C73.1223 31.5361 73.5077 31.5935 73.8659 31.7041C74.2242 31.8148 74.5461 31.9705 74.8318 32.1754C75.1175 32.3762 75.3578 32.6261 75.5483 32.9171C75.7432 33.2121 75.8793 33.5359 75.9564 33.8924H74.8635C74.7139 33.4047 74.4464 33.0277 74.0609 32.7655C73.6755 32.5032 73.2175 32.368 72.6915 32.368C72.3333 32.368 72.0068 32.4294 71.712 32.5442C71.4173 32.663 71.1679 32.8269 70.9548 33.04C70.7417 33.2531 70.5829 33.5113 70.4696 33.8104C70.3562 34.1095 70.2973 34.4374 70.2973 34.7939C70.2973 35.1504 70.3562 35.4782 70.4696 35.7773C70.5829 36.0765 70.7462 36.3346 70.9548 36.5477C71.1634 36.7608 71.4173 36.9247 71.712 37.0436C72.0068 37.1624 72.3333 37.2198 72.6915 37.2198C73.2175 37.2198 73.671 37.0927 74.0519 36.8346C74.4328 36.5805 74.7048 36.2322 74.859 35.7896H75.9518C75.8566 36.1297 75.707 36.4412 75.5029 36.7157C75.2988 36.9944 75.054 37.2321 74.7683 37.4287C74.4826 37.6254 74.1561 37.7812 73.8025 37.8877C73.4488 37.9942 73.0679 38.0475 72.6643 38.0475H72.6688Z" fill="white"/>
<path d="M78.0799 37.5361C77.8305 37.2738 77.7035 36.8846 77.7035 36.3723V32.4262H76.7422V31.6517H77.7171V30.3076H78.7555V31.6517H80.3471V32.4262H78.7419V36.2084C78.7419 36.4994 78.8099 36.7288 78.946 36.8928C79.082 37.0567 79.3223 37.1345 79.6624 37.1345H80.3607V37.9295H79.3586C78.7555 37.9295 78.3247 37.7984 78.0753 37.5361H78.0799Z" fill="white"/>
<path d="M84.6638 38.0475C84.1469 38.0475 83.6708 37.9656 83.2354 37.8057C82.8001 37.6418 82.4283 37.4165 82.1109 37.1296C81.7935 36.8428 81.5486 36.4945 81.3763 36.097C81.1994 35.6954 81.1133 35.261 81.1133 34.7939C81.1133 34.3267 81.1994 33.8924 81.3763 33.4908C81.5531 33.0892 81.798 32.745 82.1109 32.454C82.4283 32.1631 82.8001 31.9377 83.2354 31.7779C83.6708 31.614 84.1469 31.5361 84.6638 31.5361C85.1808 31.5361 85.6569 31.6181 86.0922 31.7779C86.5275 31.9418 86.8993 32.1672 87.2167 32.454C87.5342 32.745 87.779 33.0892 87.9604 33.4908C88.1418 33.8924 88.228 34.3267 88.228 34.7939C88.228 35.261 88.1373 35.6954 87.9604 36.097C87.779 36.4985 87.5342 36.8428 87.2167 37.1296C86.8993 37.4206 86.5275 37.6459 86.0922 37.8057C85.6569 37.9697 85.1808 38.0475 84.6638 38.0475ZM84.6774 37.2157C85.0266 37.2157 85.3531 37.1583 85.6569 37.0436C85.9607 36.9288 86.2192 36.7608 86.4413 36.5477C86.659 36.3305 86.8313 36.0765 86.9537 35.7773C87.0762 35.4782 87.1397 35.1504 87.1397 34.7939C87.1397 34.4374 87.0762 34.1054 86.9537 33.8063C86.8313 33.5072 86.659 33.249 86.4413 33.0359C86.2237 32.8187 85.9607 32.6548 85.6569 32.5401C85.3531 32.4254 85.022 32.368 84.6638 32.368C84.3056 32.368 83.9746 32.4254 83.6708 32.5401C83.3669 32.6548 83.1085 32.8187 82.8953 33.0359C82.6822 33.2531 82.5099 33.5072 82.3875 33.8063C82.265 34.1054 82.2016 34.4333 82.2016 34.7939C82.2016 35.1545 82.265 35.4823 82.3875 35.7773C82.5099 36.0765 82.6822 36.3346 82.8999 36.5477C83.1175 36.7608 83.3805 36.9288 83.6844 37.0436C83.9882 37.1583 84.3192 37.2157 84.6774 37.2157Z" fill="white"/>
<path d="M89.9336 31.6484H90.9085L90.9357 32.7794H90.9765C91.3892 32.0254 92.0648 31.6484 93.0035 31.6484H93.4116V32.5745H92.8312C92.5954 32.5745 92.3641 32.6114 92.1464 32.6811C91.9288 32.7507 91.7293 32.8696 91.5524 33.0335C91.3756 33.1974 91.235 33.4105 91.1307 33.6809C91.0264 33.9514 90.972 34.2874 90.972 34.6931V37.9262H89.9336V31.6484Z" fill="white"/>
<path d="M9.59532 0.000976562H17.7892L26.7449 23.4239H20.2288L18.551 18.7074H8.9106L7.23283 23.4239H0.830078L9.59532 0.000976562ZM16.837 13.7777L16.3427 12.364C14.742 7.92199 14.1707 6.29927 13.7127 4.40609H13.6356C13.1413 6.57792 12.1483 9.43408 11.1189 12.364L10.6247 13.7777H16.837Z" fill="white"/>
<path d="M29.9551 0.000976562H35.9407V18.359H48.7462V23.4239H29.9551V0.000976562Z" fill="white"/>
<path d="M52.5273 0.000976562H70.67V4.85685H58.4358V9.12674H67.7724V13.9498H58.4358V18.568H71.128V23.4239H52.5273V0.000976562Z" fill="white"/>
<path d="M75.1745 0.000976562H84.969L87.3315 8.54486C87.9391 10.7822 89.1227 14.8472 89.694 17.6051H89.8482C90.3424 15.6422 90.9546 13.2983 92.0973 9.09806L94.5006 0.000976562H104.105V23.4239H98.2371V15.2939C98.2371 12.1591 98.2733 7.88921 98.4275 5.61494H98.3141C97.9332 7.74989 96.6772 12.0894 95.7204 15.2611L93.3171 23.1821H85.8442L83.2504 14.5727C82.2574 11.4379 81.423 8.44241 80.6975 5.61904H80.5841C80.6975 7.54909 80.8109 10.9585 80.8109 14.5727V23.4239H75.1699V0.000976562H75.1745Z" fill="white"/>
<path d="M109.756 0.000976562H115.32V23.4239H109.756V0.000976562Z" fill="white"/>
<path d="M120.965 0.000976562H134.038C139.602 0.000976562 142.386 3.20544 142.386 7.1639C142.386 10.5733 140.672 13.0565 137.162 14.1588L143.374 23.4239H136.437L131.331 15.2611H126.91V23.4239H120.965V0.000976562ZM132.551 10.5077C134.99 10.5077 136.056 9.26607 136.056 7.65154C136.056 5.89359 134.913 4.79129 132.7 4.79129H126.905V10.5077H132.546H132.551Z" fill="white"/>
<path d="M153.594 0.000976562H161.788L170.744 23.4239H164.227L162.55 18.7074H152.905L151.227 23.4239H144.824L153.594 0.000976562ZM160.836 13.7777L160.341 12.364C158.741 7.92199 158.169 6.29927 157.711 4.40609H157.634C157.14 6.57792 156.147 9.43408 155.118 12.364L154.623 13.7777H160.836Z" fill="white"/>
</g>
<defs>
<clipPath id="clip0_2613_89757">
<rect width="169.918" height="40.1624" fill="white" transform="translate(0.826172)"/>
</clipPath>
</defs>
</svg>
