<svg width="427" height="39" viewBox="0 0 427 39" fill="none" xmlns="http://www.w3.org/2000/svg">
<path d="M125.12 11.585V27.3193H127.776V28.5068H117.447V27.3193H120.103V12.7725H118.037V11.585H125.12Z" fill="#6D6E71"/>
<path d="M21.5418 1.49121H20.6565C20.6565 2.38184 20.0663 2.67871 19.4762 2.67871C17.7056 2.67871 15.3449 0.600586 12.689 0.600586C4.72149 0.600586 0 8.31934 0 15.4443C0 22.2725 4.4264 29.1006 12.0988 29.1006C16.8203 29.1006 18.5909 27.0225 19.7712 27.0225C20.6565 27.0225 20.6565 27.6162 20.6565 28.5068H21.8369V19.0068H20.6565L20.3614 20.1943C19.7713 23.46 17.4105 27.9131 12.3939 27.9131C8.26261 28.21 6.49205 24.3506 6.49205 14.8506C6.49205 5.05371 8.8528 1.78809 12.689 1.78809C17.1154 1.78809 20.0663 6.83496 20.6565 10.6943H21.5418V1.49121Z" fill="#6D6E71"/>
<path d="M35.1157 24.0537C35.1157 26.1318 33.9353 27.6162 32.1648 27.6162C29.5089 27.6162 29.5089 25.5381 29.5089 23.7568C29.5089 21.6787 29.804 20.4912 32.1648 20.1943L35.1157 19.8975V24.0537ZM42.198 25.2412C42.198 26.1318 41.3127 27.3193 41.0176 27.3193C40.4274 27.3193 40.1323 26.7256 40.1323 25.5381V16.6318C40.1323 12.1787 36.001 11.2881 32.1648 11.2881C28.3286 11.2881 25.6727 13.0693 25.6727 15.4443C25.6727 16.9287 26.558 17.8193 28.0335 17.8193C29.5089 17.8193 30.3942 16.9287 30.3942 15.4443C30.3942 13.3662 28.3286 13.3662 28.3286 13.3662C28.3286 12.4756 30.6893 12.1787 31.8697 12.1787C34.8206 12.1787 35.1157 13.3662 35.1157 15.4443V18.71L31.2795 19.0068C28.0335 19.3037 24.1973 20.1943 24.1973 24.3506C24.1973 27.6162 27.1482 29.1006 30.0991 29.1006C31.5746 29.1006 34.2304 28.5068 35.1157 26.7256C35.7059 28.21 37.1814 29.1006 38.9519 29.1006C41.3127 29.1006 43.0832 27.6162 43.0832 25.2412H42.198Z" fill="#6D6E71"/>
<path d="M395.424 11.585V27.3193H398.08V28.5068H387.752V27.3193H390.408V12.7725H387.752V11.585H395.424Z" fill="#6D6E71"/>
<path d="M167.612 19.6006L174.104 1.49121H182.662V2.67871H180.006V27.3193H182.367V28.5068H172.039V27.3193H174.695V2.97559L165.842 28.5068H164.957L155.809 2.38184V24.0537C155.809 27.0225 156.694 27.3193 158.76 27.3193V28.5068H152.268V27.3193C154.333 27.3193 154.923 26.1318 154.923 24.3506V2.67871H152.268V1.49121H161.711L167.612 19.6006Z" fill="#6D6E71"/>
<path d="M188.564 18.1162V15.7412C188.564 13.0693 189.744 12.4756 190.925 12.4756C192.695 12.4756 193.285 13.6631 193.285 15.7412V18.4131H188.564V18.1162ZM188.564 19.3037H199.187C199.187 15.1475 195.351 11.2881 191.22 11.2881C186.793 11.2881 182.957 15.1475 182.957 20.4912C182.957 25.5381 186.498 29.1006 191.515 29.1006C196.236 29.1006 198.597 26.1318 199.482 22.2725H198.302C197.417 25.835 195.646 27.9131 192.695 27.9131C189.154 27.9131 188.859 25.2412 188.859 22.5693V19.3037H188.564Z" fill="#6D6E71"/>
<path d="M346.439 18.1162V15.4443C346.439 12.7725 347.619 12.1787 348.8 12.1787C350.57 12.1787 351.16 13.3662 351.16 15.4443V18.1162H346.439ZM346.439 19.3037H357.062C357.062 15.1475 353.226 11.2881 349.095 11.2881C344.668 11.2881 340.832 15.1475 340.832 20.4912C340.832 25.5381 344.373 29.1006 349.39 29.1006C354.111 29.1006 356.472 26.1318 357.357 22.2725H356.177C355.292 25.835 353.521 27.9131 350.57 27.9131C347.029 27.9131 346.734 25.2412 346.734 22.5693V19.3037H346.439Z" fill="#6D6E71"/>
<path d="M199.188 1.78809V2.67871H201.843V27.3193H199.188V28.5068H209.811V27.3193H207.155V1.78809H199.188Z" fill="#6D6E71"/>
<path d="M210.402 1.78809V2.67871H213.058V27.3193H210.402V28.5068H221.026V27.3193H218.37V1.78809H210.402Z" fill="#6D6E71"/>
<path d="M233.124 23.7568C233.124 26.7256 231.944 27.9131 229.878 27.9131C227.813 27.9131 226.632 26.7256 226.632 23.7568V16.335C226.632 13.3662 227.813 12.1787 229.878 12.1787C231.944 12.1787 233.124 13.3662 233.124 16.335V23.7568ZM239.026 20.1943C239.026 14.8506 234.895 11.2881 229.878 11.2881C224.862 11.2881 220.73 14.8506 220.73 20.1943C220.73 25.5381 224.862 29.1006 229.878 29.1006C234.895 29.1006 239.026 25.2412 239.026 20.1943Z" fill="#6D6E71"/>
<path d="M266.174 2.67871H268.83V19.6006C268.83 25.5381 272.961 29.1006 279.158 29.1006C286.24 29.1006 289.191 25.2412 289.191 19.6006V5.05371C289.191 2.97559 289.781 2.38184 291.257 2.38184H292.142V1.49121H285.355V2.38184H285.945C288.011 2.38184 288.011 2.97559 288.011 5.05371V19.8975C288.011 25.2412 284.765 27.6162 281.519 27.6162C275.912 27.6162 274.732 23.7568 274.436 19.0068V2.67871H276.797V1.49121H266.174V2.67871Z" fill="#6D6E71"/>
<path d="M331.98 28.8037H332.865L338.472 15.4443C339.652 13.0693 340.243 12.7725 341.128 12.4756H341.423V11.585H335.521V12.7725H336.111C337.292 12.7725 337.587 12.7725 337.587 13.6631C337.587 14.2568 337.292 14.8506 336.996 16.0381L334.341 22.2725L330.209 12.7725H332.275V11.585H322.832V12.7725H324.603L331.98 28.8037Z" fill="#6D6E71"/>
<path d="M374.473 28.8037H375.358C375.653 28.21 375.948 27.9131 376.833 27.9131C377.719 27.9131 378.899 28.8037 381.26 28.8037C384.801 28.8037 387.457 25.5381 387.457 22.5693C387.457 17.8193 384.211 17.5225 380.079 16.9287C378.014 16.6318 376.833 16.335 376.833 14.5537C376.833 12.7725 378.309 11.8818 380.374 11.8818C383.325 11.8818 384.211 13.6631 385.391 16.335H386.276V10.9912H385.391C385.391 11.585 385.096 11.8818 384.211 11.8818C383.03 11.8818 382.145 10.9912 380.374 10.9912C376.538 10.9912 374.768 14.2568 374.768 16.6318C374.768 21.6787 378.604 21.9756 381.26 22.2725C383.916 22.5693 385.096 22.8662 385.096 24.6475C385.096 26.7256 383.325 27.6162 381.26 27.6162C378.309 27.6162 376.243 25.2412 375.653 22.2725H374.768V28.8037H374.473Z" fill="#6D6E71"/>
<path d="M321.946 11.585V27.3193H324.602V28.5068H313.979V27.3193H316.634V12.7725H313.979V11.585H321.946Z" fill="#6D6E71"/>
<path d="M316.635 6.24121C316.635 7.72559 317.815 8.91309 319.291 8.91309C320.766 8.91309 321.946 7.72559 321.946 6.24121C321.946 4.75684 320.766 3.56934 319.291 3.56934C317.815 3.56934 316.635 4.75684 316.635 6.24121Z" fill="#6D6E71"/>
<path d="M390.113 6.24121C390.113 7.72559 391.294 8.91309 392.769 8.91309C394.245 8.91309 395.425 7.72559 395.425 6.24121C395.425 4.75684 394.245 3.56934 392.769 3.56934C391.294 3.56934 390.113 4.75684 390.113 6.24121Z" fill="#6D6E71"/>
<path d="M87.9369 18.1162V15.7412C87.9369 13.0693 89.1172 12.4756 90.2976 12.4756C92.0682 12.4756 92.6583 13.6631 92.6583 15.7412V18.4131H87.9369V18.1162ZM87.9369 19.3037H98.5602C98.5602 15.1475 94.724 11.2881 90.5927 11.2881C86.1663 11.2881 82.3301 15.1475 82.3301 20.4912C82.3301 25.5381 85.8712 29.1006 90.8878 29.1006C95.6093 29.1006 97.97 26.1318 98.8553 22.2725H97.3798C96.4946 25.835 94.724 27.9131 91.7731 27.9131C88.2319 27.9131 87.9369 25.2412 87.9369 22.5693V19.3037Z" fill="#6D6E71"/>
<path d="M133.677 18.1162V15.7412C133.677 13.0693 134.857 12.4756 136.038 12.4756C137.513 12.4756 138.399 13.3662 138.399 15.7412V18.4131H133.677V18.1162ZM133.677 19.3037H144.3C144.3 15.1475 140.464 11.2881 136.333 11.2881C131.907 11.2881 128.07 15.1475 128.07 20.4912C128.07 25.5381 131.611 29.1006 136.628 29.1006C141.35 29.1006 143.71 26.1318 144.596 22.2725H143.415C142.53 25.835 140.759 27.9131 137.808 27.9131C134.267 27.9131 133.972 25.2412 133.972 22.5693V19.3037H133.677Z" fill="#6D6E71"/>
<path d="M310.734 27.3193V17.2256C310.734 13.0693 308.963 11.2881 305.422 11.2881C302.766 11.2881 300.406 12.7725 299.225 14.8506V11.8818H291.258V12.7725H293.914V27.6162H291.258V28.5068H301.291V27.3193H298.93V17.2256C299.225 15.7412 300.996 12.4756 303.062 12.4756C304.537 12.4756 305.127 13.0693 305.127 15.4443V27.3193H303.062V28.21H313.095V27.3193H310.734Z" fill="#6D6E71"/>
<path d="M246.698 11.585V14.5537C247.878 12.4756 250.534 10.9912 252.895 10.9912C256.436 10.9912 258.206 12.7725 258.206 16.9287V27.3193H260.862V28.21H250.829V27.6162H252.895V15.7412C252.895 13.0693 252.305 12.7725 250.829 12.7725C248.763 12.7725 246.993 16.0381 246.698 17.5225V27.6162H249.059V28.5068H239.025V27.6162H241.681V12.7725H239.025V11.585H246.698Z" fill="#6D6E71"/>
<path d="M79.3805 27.6162V17.2256C79.3805 13.0693 77.6099 11.2881 74.0688 11.2881C71.4129 11.2881 69.0522 12.7725 67.8718 14.8506V11.8818H59.9043V12.7725H62.5601V27.6162H59.9043V28.5068H69.9375V27.6162H67.8718V17.5225C68.1669 16.0381 69.9375 12.7725 72.0031 12.7725C73.4786 12.7725 74.0688 13.3662 74.0688 15.7412V27.6162H72.0031V28.5068H82.0363V27.6162H79.3805Z" fill="#6D6E71"/>
<path d="M120.104 6.53809C120.104 8.02246 121.284 9.20996 122.759 9.20996C124.235 9.20996 125.415 8.02246 125.415 6.53809C125.415 5.05371 124.235 3.86621 122.759 3.86621C121.284 3.86621 120.104 5.05371 120.104 6.53809Z" fill="#6D6E71"/>
<path d="M421.098 11.585V12.7725C422.573 12.7725 423.458 13.0693 423.458 13.6631C423.458 14.2568 423.163 14.8506 422.868 16.0381L420.212 22.2725L416.081 12.7725H418.147V11.585H405.162V3.27246H404.277C404.277 7.42871 401.621 11.585 397.785 11.585V12.7725H399.851V24.6475C399.851 28.21 403.097 29.1006 403.982 29.1006C406.343 29.1006 407.818 28.21 408.999 26.1318L408.113 25.5381C407.523 26.1318 406.933 27.0225 406.048 27.0225C405.162 27.0225 404.867 26.4287 404.867 25.2412V12.7725H410.179L417.261 28.8037L414.901 34.4443L414.605 34.7412C414.605 34.7412 414.31 34.7412 414.31 34.4443C414.015 33.2568 413.13 32.6631 411.95 32.6631C410.474 32.6631 409.294 33.8506 409.294 35.335C409.294 36.2256 409.884 37.1162 410.769 37.71C410.769 37.71 410.769 37.71 411.064 37.71C411.359 37.71 411.655 38.0068 411.95 38.0068C414.015 38.3037 415.196 36.5225 416.081 34.7412C416.376 34.4443 416.376 33.8506 416.671 33.5537C416.966 32.6631 417.556 31.4756 418.147 29.6943L418.737 28.21L424.048 15.4443C425.229 13.0693 425.524 12.7725 426.999 12.7725V11.585H421.098Z" fill="#6D6E71"/>
<path d="M56.3628 10.9912C54.0021 10.9912 51.9364 12.7725 51.3463 14.5537V11.585H43.6738V12.7725H46.3297V27.6162H43.6738V28.8037H55.1825V27.6162H51.6413V19.3037C51.6413 16.9287 52.2315 14.2568 54.0021 13.0693H54.2972L54.5923 13.3662C54.5923 13.6631 54.2972 13.96 54.2972 14.5537C54.2972 16.0381 55.4776 16.9287 56.953 16.9287C58.7236 16.9287 59.904 15.4443 59.904 14.2568C59.3138 12.1787 58.1334 10.9912 56.3628 10.9912Z" fill="#6D6E71"/>
<path d="M113.315 12.1787C113.61 12.1787 113.61 12.1787 113.315 12.1787C113.61 12.4756 113.61 12.4756 113.315 12.1787C113.315 12.7725 113.315 13.3662 113.315 13.6631C113.61 14.2568 113.905 14.5537 114.496 14.8506C115.676 15.1475 116.561 14.2568 116.561 13.3662C116.561 12.7725 116.266 12.1787 115.676 11.8818C115.086 11.585 114.496 11.585 113.905 11.585C113.02 11.585 111.84 12.1787 111.25 12.7725C110.954 12.7725 110.954 12.4756 110.659 12.4756C109.479 11.8818 108.299 11.585 106.528 11.585C103.282 11.585 100.036 13.6631 100.036 17.2256C100.036 19.3037 101.216 21.085 103.282 21.9756C101.807 22.2725 99.4458 23.1631 99.4458 26.4287C99.4458 28.21 100.331 29.6943 101.807 30.2881C100.331 30.585 98.5605 32.3662 98.5605 34.1475C98.5605 37.1162 101.807 39.1943 106.233 39.1943C111.545 39.1943 115.086 35.6318 115.086 30.8818C115.086 27.3193 113.315 25.5381 109.479 25.5381H103.282C102.397 25.5381 101.807 25.5381 101.807 24.3506C101.807 23.46 103.282 22.2725 104.758 22.2725C105.053 22.2725 105.348 22.5693 105.643 22.5693C106.233 22.8662 106.528 22.8662 107.118 22.8662C110.364 22.8662 113.905 21.085 113.905 17.2256C113.905 16.0381 113.315 14.5537 112.43 13.6631C112.43 13.6631 112.43 13.6631 112.43 13.3662C112.43 12.7725 112.725 12.4756 113.02 12.4756C113.02 12.4756 113.315 12.4756 113.315 12.1787ZM108.299 29.9912C112.135 29.9912 113.02 30.2881 113.02 32.3662C113.02 35.0381 109.479 37.71 105.643 37.71C102.102 37.71 100.626 35.6318 100.626 33.8506C100.626 32.0693 101.511 31.1787 102.397 29.9912H108.299ZM109.184 16.9287C109.184 21.3818 108.004 21.3818 106.528 21.3818C105.053 21.3818 104.167 21.085 104.167 16.6318C104.167 13.6631 104.462 12.1787 106.528 12.1787C108.299 12.1787 108.889 12.4756 109.184 16.9287Z" fill="#6D6E71"/>
<path d="M370.341 10.9912C367.981 10.9912 365.915 12.7725 365.325 14.5537V11.585H357.652V12.7725H360.308V27.6162H357.652V28.8037H369.161V27.3193H365.62V19.0068C365.62 16.6318 366.21 13.96 367.981 12.7725H368.276L368.571 13.0693C368.571 13.3662 368.276 13.6631 368.276 14.2568C368.276 15.7412 369.456 16.6318 370.932 16.6318C372.702 16.6318 373.882 15.1475 373.882 13.96C373.292 11.8818 372.112 10.9912 370.341 10.9912Z" fill="#6D6E71"/>
</svg>
