<svg width="117" height="41" viewBox="0 0 117 41" fill="none" xmlns="http://www.w3.org/2000/svg">
<g clip-path="url(#clip0_2613_89783)">
<path d="M3.95576 38.0429C3.47136 38.0429 3.03655 37.9604 2.65513 37.7953C2.27371 37.6265 1.9457 37.3938 1.68252 37.0937L1.61005 37.9266H0.748047V29.1768H1.6787V32.5086C1.95332 32.1897 2.28897 31.9458 2.68183 31.777C3.0785 31.6081 3.51713 31.5218 4.00153 31.5218C4.44398 31.5218 4.85972 31.5969 5.24114 31.7469C5.62255 31.897 5.95439 32.1146 6.22901 32.3998C6.50363 32.685 6.72103 33.0302 6.87742 33.4279C7.0338 33.8256 7.11389 34.2796 7.11389 34.7786C7.11389 35.2476 7.03761 35.6829 6.88504 36.0806C6.73248 36.4821 6.51507 36.8273 6.23664 37.1162C5.9582 37.4051 5.62637 37.634 5.23732 37.7953C4.84828 37.9567 4.42109 38.0392 3.95576 38.0392V38.0429ZM3.87185 37.21C4.20368 37.21 4.505 37.1499 4.77962 37.0336C5.05424 36.9136 5.29072 36.7485 5.48906 36.5346C5.68739 36.3207 5.83996 36.0656 5.95057 35.7692C6.06118 35.4728 6.11458 35.1463 6.11458 34.7936C6.11458 34.4409 6.06118 34.1108 5.95057 33.8106C5.83996 33.5104 5.68739 33.2553 5.48524 33.0414C5.28309 32.8275 5.04661 32.6624 4.77199 32.5386C4.49737 32.4148 4.19987 32.3548 3.87566 32.3548C3.52858 32.3548 3.21581 32.4148 2.93357 32.5386C2.65132 32.6624 2.41102 32.8275 2.21269 33.0414C2.01435 33.2553 1.86178 33.5104 1.75117 33.8106C1.64056 34.1108 1.58716 34.4372 1.58716 34.7936C1.58716 35.1501 1.64056 35.4728 1.75117 35.7692C1.86178 36.0656 2.01435 36.3207 2.21269 36.5346C2.41102 36.7485 2.65132 36.9136 2.93357 37.0336C3.21581 37.1537 3.52858 37.21 3.87566 37.21H3.87185Z" fill="white"/>
<path d="M13.6057 31.6387L11.054 38.6401C10.9396 38.9402 10.8213 39.1879 10.6917 39.383C10.562 39.5781 10.417 39.7319 10.2568 39.8482C10.0967 39.9646 9.91357 40.0434 9.70761 40.0921C9.50164 40.1409 9.26898 40.1634 9.01343 40.1634H8.4947V39.3305H8.89519C9.22702 39.3305 9.48257 39.2742 9.66184 39.1616C9.8411 39.0491 9.99749 38.8164 10.1272 38.4637L10.3331 37.9347L7.70898 31.6387H8.76169L10.1157 35.0193C10.2035 35.2407 10.2797 35.4358 10.3446 35.6009C10.4094 35.766 10.4666 35.9198 10.52 36.0549C10.5734 36.19 10.6192 36.3138 10.6573 36.4226C10.6993 36.5352 10.7374 36.644 10.7794 36.7565H10.8175C10.848 36.644 10.8824 36.5389 10.9205 36.4338C10.9587 36.3325 10.9968 36.2237 11.0349 36.1074C11.0769 35.9911 11.1189 35.871 11.1608 35.7397C11.2066 35.6084 11.2562 35.4545 11.3134 35.282L12.5949 31.6387H13.6133H13.6057Z" fill="white"/>
<path d="M21.6642 38.0435C21.0768 38.0435 20.539 37.9422 20.0546 37.7358C19.5702 37.5295 19.1545 37.2406 18.8074 36.8729C18.4603 36.5051 18.1895 36.0624 17.995 35.5521C17.8004 35.0418 17.7051 34.479 17.7051 33.8674C17.7051 33.2558 17.8004 32.6968 17.995 32.1902C18.1895 31.6837 18.4603 31.2447 18.8112 30.8733C19.1621 30.5056 19.5778 30.2204 20.0584 30.0178C20.539 29.8152 21.0654 29.7139 21.6375 29.7139C22.6139 29.7139 23.4301 29.9728 24.0824 30.4868C24.7346 31.0046 25.1808 31.7212 25.4135 32.6405H24.3608C24.1663 31.9726 23.8306 31.4623 23.3577 31.1096C22.8809 30.7569 22.3012 30.5806 21.6146 30.5806C21.2027 30.5806 20.8251 30.6594 20.478 30.817C20.1309 30.9746 19.8296 31.1997 19.5778 31.4886C19.3223 31.7775 19.1278 32.1227 18.9866 32.5242C18.8455 32.9257 18.773 33.3647 18.773 33.8412C18.773 34.3177 18.8455 34.7829 18.9905 35.1919C19.1354 35.6009 19.3375 35.9536 19.5969 36.2463C19.8563 36.5389 20.1652 36.7678 20.5276 36.9291C20.8899 37.0905 21.2904 37.173 21.7252 37.173C22.3965 37.173 22.961 36.9929 23.4263 36.6365C23.8917 36.28 24.2159 35.7435 24.3989 35.0306H25.4173C25.322 35.4846 25.1618 35.8973 24.9406 36.2688C24.7193 36.644 24.4485 36.9592 24.1281 37.2218C23.8077 37.4844 23.4416 37.6871 23.0258 37.8296C22.6101 37.9722 22.1562 38.0435 21.6642 38.0435V38.0435Z" fill="white"/>
<path d="M29.8626 38.0436C29.3858 38.0436 28.9472 37.961 28.5505 37.7997C28.15 37.6384 27.8067 37.4095 27.5169 37.1206C27.227 36.8317 27.002 36.4865 26.838 36.085C26.6778 35.6835 26.5977 35.2483 26.5977 34.783C26.5977 34.3178 26.6778 33.8788 26.838 33.4811C26.9981 33.0796 27.227 32.7344 27.5169 32.4455C27.8067 32.1566 28.1538 31.9314 28.5505 31.7663C28.951 31.605 29.3858 31.5225 29.8626 31.5225C30.3394 31.5225 30.778 31.605 31.1747 31.7663C31.5751 31.9277 31.9184 32.1566 32.2083 32.4455C32.4982 32.7344 32.727 33.0796 32.891 33.4811C33.055 33.8825 33.139 34.3178 33.139 34.783C33.139 35.2483 33.055 35.6873 32.891 36.085C32.727 36.4865 32.4982 36.8317 32.2083 37.1206C31.9184 37.4095 31.5713 37.6384 31.1747 37.7997C30.7742 37.961 30.3394 38.0436 29.8626 38.0436ZM29.874 37.2106C30.1982 37.2106 30.4957 37.1543 30.7742 37.038C31.0526 36.9217 31.2929 36.7566 31.4951 36.5428C31.6972 36.3289 31.8536 36.07 31.968 35.7698C32.0824 35.4697 32.1358 35.1432 32.1358 34.783C32.1358 34.4228 32.0786 34.0964 31.968 33.7962C31.8536 33.4961 31.6972 33.2409 31.4951 33.0233C31.2929 32.8094 31.0526 32.6443 30.7742 32.528C30.4957 32.4117 30.1906 32.3554 29.8588 32.3554C29.5269 32.3554 29.2218 32.4117 28.9434 32.528C28.6649 32.6443 28.4285 32.8094 28.2301 33.0233C28.0318 33.2372 27.8754 33.4961 27.7648 33.7962C27.6504 34.0964 27.597 34.4228 27.597 34.783C27.597 35.1432 27.6542 35.4697 27.7648 35.7698C27.8792 36.07 28.0356 36.3251 28.2378 36.5428C28.4399 36.7604 28.6802 36.9217 28.9586 37.038C29.2371 37.1543 29.5422 37.2106 29.874 37.2106V37.2106Z" fill="white"/>
<path d="M34.709 31.6386H35.5672L35.6168 32.5204H35.6549C35.8952 32.1864 36.2003 31.935 36.5703 31.7699C36.9403 31.6049 37.3446 31.5186 37.787 31.5186C38.0464 31.5186 38.3096 31.5561 38.5842 31.6311C38.8588 31.7062 39.1105 31.8375 39.3394 32.0176C39.5682 32.1977 39.7589 32.4491 39.9077 32.7605C40.0564 33.0757 40.1327 33.4734 40.1327 33.9574V37.9234H39.1754V34.1263C39.1754 33.4997 39.0266 33.0457 38.7291 32.768C38.4316 32.4903 38.0464 32.3515 37.5811 32.3515C37.3217 32.3515 37.0776 32.3928 36.8411 32.4716C36.6084 32.5504 36.4025 32.6704 36.2308 32.8355C36.0554 32.9969 35.9219 33.1995 35.8189 33.4434C35.7197 33.6873 35.6663 33.9724 35.6663 34.3064V37.9234H34.709V31.6386V31.6386Z" fill="white"/>
<path d="M42.5399 36.104C42.6048 36.4829 42.7802 36.7793 43.0739 36.9895C43.3676 37.1996 43.8139 37.3046 44.4165 37.3046C44.8933 37.3046 45.2671 37.2146 45.5341 37.0307C45.8049 36.8469 45.9384 36.5842 45.9384 36.2315C45.9384 35.8263 45.7324 35.5449 45.3205 35.3873C45.1755 35.3235 45.0191 35.2748 44.8475 35.2447C44.6759 35.2147 44.4699 35.1772 44.2182 35.1359C43.9359 35.0872 43.6956 35.0459 43.4973 35.0121C43.299 34.9746 43.0968 34.9221 42.887 34.8508C42.7726 34.8132 42.6582 34.757 42.5361 34.6857C42.4141 34.6144 42.2996 34.5206 42.1929 34.4043C42.0861 34.288 41.9945 34.1491 41.9259 33.9803C41.8572 33.8152 41.8229 33.6163 41.8229 33.3837C41.8229 33.106 41.8763 32.8509 41.9869 32.622C42.0975 32.3932 42.2501 32.1943 42.4522 32.0254C42.6544 31.8566 42.8985 31.729 43.1845 31.639C43.4706 31.5489 43.7948 31.5039 44.1571 31.5039C44.4814 31.5039 44.7865 31.5414 45.0764 31.609C45.3662 31.6803 45.6256 31.7928 45.8583 31.9504C46.0871 32.1042 46.2778 32.3069 46.4266 32.5507C46.5753 32.7984 46.6669 33.0985 46.6974 33.455H45.7553C45.6981 33.0423 45.5302 32.7383 45.248 32.5395C44.9658 32.3406 44.592 32.2431 44.1228 32.2431C43.6537 32.2431 43.2799 32.3481 43.0472 32.5582C42.8146 32.7684 42.6963 33.0085 42.6963 33.2786C42.6963 33.5 42.7573 33.6764 42.8832 33.8039C43.0091 33.9315 43.1693 34.0253 43.36 34.0891C43.5545 34.1529 43.7719 34.2054 44.0122 34.2504C44.2525 34.2955 44.4928 34.3367 44.7255 34.3743C44.9581 34.4155 45.206 34.4643 45.4654 34.5243C45.7248 34.5844 45.9498 34.6819 46.1443 34.817C46.3541 34.9446 46.5219 35.1172 46.6478 35.3385C46.7737 35.5599 46.8347 35.8263 46.8347 36.1377C46.8347 36.7493 46.6097 37.2221 46.1558 37.556C45.7057 37.89 45.0954 38.0551 44.3288 38.0551C43.4401 38.0551 42.7802 37.8787 42.3492 37.526C41.9182 37.1733 41.6703 36.6968 41.6055 36.104H42.5361H42.5399Z" fill="white"/>
<path d="M48.8688 37.529C48.6399 37.2663 48.5255 36.8798 48.5255 36.3621V32.4111H47.6406V31.6382H48.537V30.2949H49.4943V31.6382H50.959V32.4111H49.4829V36.197C49.4829 36.4896 49.5439 36.7185 49.6698 36.8798C49.7956 37.0412 50.013 37.1237 50.3296 37.1237H50.9704V37.9229H50.0512C49.4943 37.9229 49.1015 37.7916 48.8726 37.529H48.8688Z" fill="white"/>
<path d="M52.2636 31.6387H53.1599L53.1828 32.7681H53.2209C53.5985 32.0139 54.2202 31.6387 55.0861 31.6387H55.4599V32.5654H54.9259C54.7085 32.5654 54.4987 32.603 54.2965 32.6742C54.0944 32.7455 53.9151 32.8619 53.7511 33.0269C53.5909 33.1883 53.4612 33.4059 53.3621 33.6761C53.2667 33.9462 53.2171 34.2839 53.2171 34.6891V37.9272H52.2598V31.6424L52.2636 31.6387Z" fill="white"/>
<path d="M62.0718 37.9231H61.2022L61.1526 37.0414H61.1145C60.8742 37.3753 60.569 37.6229 60.1991 37.7918C59.8329 37.9569 59.4324 38.0394 58.9938 38.0394C58.7344 38.0394 58.4674 38.0057 58.189 37.9344C57.9106 37.8631 57.655 37.7355 57.4262 37.5479C57.1973 37.3603 57.0066 37.1127 56.8578 36.7975C56.7091 36.4861 56.6328 36.0846 56.6328 35.6006V31.6346H57.5902V35.4317C57.5902 35.7507 57.6321 36.0171 57.7122 36.2422C57.7923 36.4636 57.9029 36.6474 58.0441 36.79C58.1852 36.9326 58.353 37.0376 58.5513 37.1052C58.7497 37.1727 58.9633 37.2065 59.1997 37.2065C59.4591 37.2065 59.7032 37.1652 59.9321 37.0864C60.1609 37.0076 60.3631 36.8875 60.5385 36.7224C60.7102 36.5611 60.8475 36.3585 60.9504 36.1146C61.0496 35.8745 61.103 35.5856 61.103 35.2516V31.6309H62.0718V37.9156V37.9231Z" fill="white"/>
<path d="M66.8158 38.0436C66.339 38.0436 65.908 37.961 65.5151 37.7997C65.1223 37.6384 64.7905 37.4095 64.512 37.1206C64.2336 36.8317 64.0162 36.4865 63.8636 36.085C63.711 35.6835 63.6348 35.2483 63.6348 34.783C63.6348 34.3178 63.7149 33.8788 63.8751 33.4811C64.0352 33.0796 64.2603 32.7344 64.5464 32.4455C64.8324 32.1566 65.1719 31.9314 65.5647 31.7663C65.9576 31.605 66.3848 31.5225 66.8539 31.5225C67.2315 31.5225 67.5862 31.5787 67.9181 31.6876C68.2499 31.8001 68.5436 31.9539 68.8068 32.1566C69.07 32.3592 69.2874 32.6068 69.4666 32.8995C69.6421 33.1921 69.7679 33.5186 69.8404 33.875H68.8373C68.7 33.3872 68.4559 33.012 68.0973 32.7456C67.7426 32.483 67.3231 32.3479 66.8387 32.3479C66.5068 32.3479 66.2055 32.408 65.9385 32.5243C65.6677 32.6443 65.4351 32.8094 65.2443 33.0233C65.0536 33.2372 64.9011 33.4923 64.7981 33.7925C64.6913 34.0926 64.6417 34.4191 64.6417 34.7755C64.6417 35.132 64.6951 35.4584 64.7981 35.7586C64.9011 36.0587 65.0536 36.3139 65.2443 36.5277C65.4351 36.7416 65.6715 36.9067 65.9385 37.0268C66.2093 37.1468 66.5106 37.2031 66.8387 37.2031C67.3231 37.2031 67.7388 37.0756 68.0897 36.8204C68.4406 36.5653 68.6885 36.2163 68.8335 35.7736H69.8366C69.7489 36.115 69.6116 36.4264 69.4247 36.7003C69.2378 36.978 69.0127 37.2181 68.7457 37.4132C68.4788 37.6084 68.1813 37.7659 67.857 37.871C67.529 37.9761 67.1819 38.0323 66.812 38.0323L66.8158 38.0436Z" fill="white"/>
<path d="M71.7887 37.529C71.5599 37.2663 71.4454 36.8798 71.4454 36.3621V32.4111H70.5605V31.6382H71.4569V30.2949H72.4142V31.6382H73.8789V32.4111H72.4028V36.197C72.4028 36.4896 72.4638 36.7185 72.5897 36.8798C72.7156 37.0412 72.933 37.1237 73.2495 37.1237H73.8903V37.9229H72.9711C72.4142 37.9229 72.0214 37.7916 71.7925 37.529H71.7887Z" fill="white"/>
<path d="M77.845 38.0436C77.3682 38.0436 76.9296 37.961 76.5329 37.7997C76.1324 37.6384 75.7892 37.4095 75.4993 37.1206C75.2094 36.8317 74.9844 36.4865 74.8204 36.085C74.6602 35.6835 74.5801 35.2483 74.5801 34.783C74.5801 34.3178 74.6602 33.8788 74.8204 33.4811C74.9806 33.0796 75.2094 32.7344 75.4993 32.4455C75.7892 32.1566 76.1363 31.9314 76.5329 31.7663C76.9334 31.605 77.3682 31.5225 77.845 31.5225C78.3218 31.5225 78.7604 31.605 79.1571 31.7663C79.5576 31.9277 79.9008 32.1566 80.1907 32.4455C80.4806 32.7344 80.7094 33.0796 80.8735 33.4811C81.0375 33.8825 81.1214 34.3178 81.1214 34.783C81.1214 35.2483 81.0375 35.6873 80.8735 36.085C80.7094 36.4865 80.4806 36.8317 80.1907 37.1206C79.9008 37.4095 79.5538 37.6384 79.1571 37.7997C78.7566 37.961 78.3218 38.0436 77.845 38.0436ZM77.8564 37.2106C78.1807 37.2106 78.4782 37.1543 78.7566 37.038C79.035 36.9217 79.2753 36.7566 79.4775 36.5428C79.6796 36.3289 79.836 36.07 79.9504 35.7698C80.0648 35.4697 80.1182 35.1432 80.1182 34.783C80.1182 34.4228 80.061 34.0964 79.9504 33.7962C79.836 33.4961 79.6796 33.2409 79.4775 33.0233C79.2753 32.8094 79.035 32.6443 78.7566 32.528C78.4782 32.4117 78.173 32.3554 77.8412 32.3554C77.5094 32.3554 77.2042 32.4117 76.9258 32.528C76.6474 32.6443 76.4109 32.8094 76.2125 33.0233C76.0142 33.2372 75.8578 33.4961 75.7472 33.7962C75.6328 34.0964 75.5794 34.4228 75.5794 34.783C75.5794 35.1432 75.6366 35.4697 75.7472 35.7698C75.8616 36.07 76.018 36.3251 76.2202 36.5428C76.4223 36.7604 76.6626 36.9217 76.941 37.038C77.2195 37.1543 77.5246 37.2106 77.8564 37.2106Z" fill="white"/>
<path d="M82.6913 31.6387H83.5876L83.6105 32.7681H83.6487C84.0263 32.0139 84.648 31.6387 85.5138 31.6387H85.8876V32.5654H85.3536C85.1362 32.5654 84.9264 32.603 84.7243 32.6742C84.5221 32.7455 84.3429 32.8619 84.1788 33.0269C84.0186 33.1883 83.889 33.4059 83.7898 33.6761C83.6944 33.9462 83.6449 34.2839 83.6449 34.6891V37.9272H82.6875V31.6424L82.6913 31.6387Z" fill="white"/>
<path d="M0.748047 0.334961H12.4041C17.3664 0.334961 19.8456 3.44544 19.8456 7.28759C19.8456 10.5969 18.3161 13.0058 15.1885 14.0751L20.7267 23.0689H14.5401L9.98596 15.1445H6.04974V23.0689H0.748047V0.334961ZM11.0806 10.5331C13.2547 10.5331 14.2082 9.32872 14.2082 7.7566C14.2082 6.05315 13.1899 4.9838 11.2179 4.9838H6.04974V10.5331H11.0806Z" fill="white"/>
<path d="M23.1133 11.6024C23.1133 4.88245 27.9382 0.000976562 35.2805 0.000976562C42.6228 0.000976562 47.379 4.88245 47.379 11.6024C47.379 18.3224 42.5884 23.4028 35.2805 23.4028C27.9725 23.4028 23.1133 18.4538 23.1133 11.6024V11.6024ZM41.837 11.6362C41.837 7.38884 39.1519 4.64982 35.2423 4.64982C31.3328 4.64982 28.6476 7.3926 28.6476 11.6362C28.6476 15.8798 31.3328 18.7577 35.2423 18.7577C39.1519 18.7577 41.837 15.9811 41.837 11.6362V11.6362Z" fill="white"/>
<path d="M51.3262 0.334961H56.6622V18.1536H68.0818V23.0689H51.3262V0.334961Z" fill="white"/>
<path d="M69.6855 11.6024C69.6855 4.88245 74.5105 0.000976562 81.8527 0.000976562C89.195 0.000976562 93.9513 4.88245 93.9513 11.6024C93.9513 18.3224 89.1607 23.4028 81.8527 23.4028C74.5448 23.4028 69.6855 18.4538 69.6855 11.6024V11.6024ZM88.4093 11.6362C88.4093 7.38884 85.7241 4.64982 81.8146 4.64982C77.9051 4.64982 75.2199 7.3926 75.2199 11.6362C75.2199 15.8798 77.9051 18.7577 81.8146 18.7577C85.7241 18.7577 88.4093 15.9811 88.4093 11.6362Z" fill="white"/>
<path d="M96.6387 16.1161H102.211C102.551 18.1197 104.66 19.189 107.41 19.189C110.16 19.189 111.59 18.1872 111.59 16.6488C111.59 15.8797 111.182 15.0767 110.297 14.709C109.447 14.3751 108.222 14.24 106.491 14.0712C104.519 13.8723 102.173 13.6022 100.407 12.7354C98.5381 11.8349 97.2146 10.2966 97.2146 7.45248C97.2146 2.93871 100.785 -0.00292969 106.46 -0.00292969C111.56 -0.00292969 115.874 2.13576 116.587 7.24986H111.049C110.572 5.00986 108.669 4.20692 106.258 4.20692C103.847 4.20692 102.417 5.17871 102.417 6.78085C102.417 7.9515 103.367 8.58561 105.137 8.85201C107.753 9.18594 110.202 9.35478 112.41 10.0227C114.55 10.6905 116.896 12.4653 116.896 16.0072C116.896 20.9225 112.986 23.3951 107.074 23.3951C101.162 23.3951 97.1498 20.9225 96.6425 16.1085L96.6387 16.1161Z" fill="white"/>
</g>
<defs>
<clipPath id="clip0_2613_89783">
<rect width="116.145" height="40.1624" fill="white" transform="translate(0.744141)"/>
</clipPath>
</defs>
</svg>
