<?xml version="1.0" encoding="UTF-8"?>
<svg id="Layer_2" data-name="Layer 2" xmlns="http://www.w3.org/2000/svg" viewBox="0 0 374.72 98.01">
  <defs>
    <style>
      .cls-1 {
        fill: #17244c;
      }
    </style>
  </defs>
  <g id="Layer_1-2" data-name="Layer 1">
    <g>
      <g>
        <path class="cls-1" d="M7.69,92.85c-1.16,0-2.2-.2-3.12-.61-.92-.41-1.7-.98-2.34-1.71l-.17,2.03H0v-21.33H2.23v8.13c.66-.77,1.46-1.37,2.41-1.79,.95-.42,2-.62,3.16-.62,1.06,0,2.06,.18,2.97,.55,.92,.37,1.71,.9,2.36,1.6s1.18,1.53,1.55,2.51,.57,2.08,.57,3.29c0,1.14-.18,2.2-.55,3.18-.37,.98-.89,1.82-1.55,2.52-.67,.71-1.47,1.26-2.39,1.65-.93,.4-1.95,.59-3.08,.59Zm-.2-2.03c.79,0,1.52-.14,2.18-.43,.66-.29,1.22-.69,1.7-1.21,.47-.52,.84-1.14,1.1-1.86s.39-1.52,.39-2.38-.13-1.67-.39-2.4c-.26-.73-.63-1.36-1.12-1.88-.48-.52-1.05-.93-1.71-1.23-.66-.3-1.37-.45-2.15-.45-.83,0-1.59,.15-2.26,.45-.68,.3-1.25,.71-1.73,1.23-.47,.52-.84,1.15-1.1,1.88-.26,.73-.39,1.53-.39,2.4s.13,1.66,.39,2.38,.63,1.34,1.1,1.86c.47,.52,1.05,.92,1.73,1.21,.68,.29,1.43,.43,2.26,.43Z"/>
        <path class="cls-1" d="M30.83,77.23l-6.12,17.06c-.27,.73-.56,1.34-.87,1.81-.31,.47-.66,.85-1.04,1.13-.39,.28-.83,.48-1.32,.6-.49,.11-1.05,.17-1.67,.17h-1.25v-2.03h.96c.79,0,1.41-.14,1.84-.41s.81-.84,1.12-1.7l.49-1.29-6.3-15.35h2.52l3.25,8.24c.21,.54,.4,1.02,.55,1.42,.15,.41,.29,.77,.42,1.1,.13,.33,.24,.63,.33,.9,.1,.27,.19,.54,.29,.81h.09c.08-.27,.16-.53,.25-.78,.09-.25,.18-.52,.28-.8,.1-.28,.2-.58,.3-.9,.11-.32,.23-.69,.36-1.12l3.08-8.88h2.44Z"/>
        <path class="cls-1" d="M50.15,92.85c-1.41,0-2.7-.25-3.86-.75s-2.16-1.21-2.99-2.1c-.83-.9-1.48-1.97-1.94-3.22s-.7-2.62-.7-4.11,.23-2.85,.7-4.09,1.12-2.31,1.96-3.21c.84-.9,1.84-1.6,2.99-2.09,1.15-.49,2.41-.74,3.79-.74,2.34,0,4.29,.63,5.86,1.89,1.57,1.26,2.63,3.01,3.19,5.25h-2.52c-.46-1.62-1.27-2.87-2.41-3.73-1.14-.86-2.53-1.29-4.18-1.29-.99,0-1.9,.19-2.73,.58-.83,.39-1.55,.93-2.16,1.64-.61,.71-1.08,1.55-1.42,2.52-.34,.98-.51,2.05-.51,3.21s.17,2.3,.52,3.29c.35,1,.83,1.85,1.45,2.57,.62,.72,1.36,1.27,2.23,1.67,.87,.4,1.83,.59,2.87,.59,1.61,0,2.96-.43,4.08-1.3,1.11-.87,1.89-2.18,2.34-3.92h2.44c-.23,1.1-.61,2.11-1.15,3.02-.53,.91-1.18,1.68-1.94,2.32-.76,.64-1.64,1.13-2.64,1.48-1,.35-2.08,.52-3.26,.52Z"/>
        <path class="cls-1" d="M69.81,92.85c-1.14,0-2.19-.2-3.15-.59-.96-.4-1.78-.95-2.48-1.65-.7-.71-1.24-1.55-1.62-2.52-.39-.98-.58-2.04-.58-3.18s.19-2.2,.58-3.18c.39-.98,.93-1.82,1.62-2.53,.7-.71,1.52-1.26,2.48-1.65,.96-.4,2.01-.59,3.15-.59s2.19,.2,3.15,.59c.96,.4,1.78,.95,2.48,1.65,.7,.71,1.24,1.55,1.64,2.53,.4,.98,.59,2.04,.59,3.18s-.2,2.2-.59,3.18c-.4,.98-.94,1.82-1.64,2.52s-1.52,1.26-2.48,1.65c-.96,.4-2.01,.59-3.15,.59Zm.03-2.03c.77,0,1.49-.14,2.16-.42s1.24-.69,1.73-1.21c.48-.53,.86-1.15,1.13-1.88,.27-.73,.41-1.53,.41-2.4s-.14-1.68-.41-2.41c-.27-.73-.65-1.36-1.13-1.88-.48-.53-1.06-.93-1.73-1.21-.67-.28-1.4-.42-2.19-.42s-1.52,.14-2.19,.42c-.67,.28-1.24,.68-1.71,1.21-.47,.53-.85,1.15-1.12,1.88-.27,.73-.41,1.53-.41,2.41s.14,1.68,.41,2.4c.27,.73,.65,1.36,1.13,1.88s1.06,.93,1.73,1.21,1.4,.42,2.19,.42Z"/>
        <path class="cls-1" d="M81.44,77.23h2.06l.12,2.15h.09c.58-.81,1.31-1.42,2.19-1.83s1.85-.61,2.92-.61c.62,0,1.26,.09,1.92,.28,.66,.18,1.26,.5,1.81,.94s1.01,1.05,1.36,1.81c.36,.76,.54,1.74,.54,2.92v9.66h-2.29v-9.26c0-1.53-.36-2.63-1.07-3.31-.72-.68-1.63-1.02-2.76-1.02-.62,0-1.21,.1-1.77,.29-.56,.19-1.05,.49-1.47,.89-.42,.4-.74,.89-.99,1.48-.24,.59-.36,1.29-.36,2.1v8.82h-2.29v-15.32Z"/>
        <path class="cls-1" d="M100.21,88.12c.15,.93,.58,1.65,1.28,2.16s1.77,.77,3.22,.77c1.14,0,2.04-.22,2.68-.67,.65-.44,.97-1.09,.97-1.94,0-.99-.49-1.67-1.48-2.06-.35-.16-.73-.27-1.13-.35s-.91-.16-1.51-.26c-.68-.12-1.25-.22-1.73-.3-.47-.09-.96-.22-1.47-.39-.27-.1-.55-.23-.84-.41s-.57-.4-.83-.68-.47-.62-.64-1.03c-.16-.41-.25-.89-.25-1.45,0-.68,.13-1.3,.39-1.86s.63-1.04,1.12-1.45c.48-.41,1.07-.72,1.76-.94,.69-.22,1.47-.33,2.34-.33,.77,0,1.51,.09,2.21,.26,.7,.17,1.32,.45,1.87,.83,.55,.38,1.01,.87,1.36,1.46,.36,.6,.58,1.34,.65,2.21h-2.26c-.14-1.01-.54-1.75-1.22-2.23-.68-.48-1.58-.72-2.7-.72s-2.02,.26-2.58,.77c-.56,.51-.84,1.1-.84,1.76,0,.54,.15,.97,.45,1.28,.3,.31,.68,.54,1.15,.7,.46,.16,.99,.29,1.57,.39,.58,.11,1.15,.21,1.71,.3,.56,.1,1.15,.22,1.77,.36,.62,.15,1.16,.38,1.62,.71,.5,.31,.9,.73,1.2,1.28s.45,1.19,.45,1.94c0,1.49-.54,2.64-1.62,3.45-1.08,.81-2.54,1.22-4.38,1.22-2.13,0-3.71-.43-4.74-1.29-1.04-.86-1.63-2.02-1.78-3.47h2.23Z"/>
        <path class="cls-1" d="M115.39,91.6c-.55-.64-.83-1.59-.83-2.84v-9.63h-2.12v-1.89h2.15v-3.28h2.29v3.28h3.51v1.89h-3.54v9.23c0,.71,.15,1.27,.45,1.67,.3,.4,.83,.59,1.58,.59h1.54v1.94h-2.21c-1.33,0-2.28-.32-2.83-.96Z"/>
        <path class="cls-1" d="M123.53,77.23h2.15l.06,2.76h.09c.91-1.84,2.4-2.76,4.47-2.76h.9v2.26h-1.28c-.52,0-1.03,.09-1.51,.26-.48,.17-.92,.46-1.31,.86-.39,.4-.7,.92-.93,1.58-.23,.66-.35,1.48-.35,2.47v7.89h-2.29v-15.32Z"/>
        <path class="cls-1" d="M147.06,92.56h-2.09l-.12-2.15h-.09c-.58,.81-1.31,1.42-2.19,1.83-.88,.41-1.84,.61-2.89,.61-.62,0-1.26-.09-1.93-.26-.67-.17-1.28-.49-1.83-.94-.55-.45-1.01-1.06-1.36-1.83-.36-.76-.54-1.74-.54-2.92v-9.66h2.29v9.26c0,.77,.1,1.43,.29,1.97,.19,.54,.46,.99,.8,1.34,.34,.35,.74,.61,1.22,.77,.47,.16,.99,.25,1.55,.25,.62,0,1.2-.1,1.76-.29,.55-.19,1.03-.49,1.45-.89,.42-.4,.74-.89,.99-1.48,.24-.59,.36-1.29,.36-2.1v-8.82h2.32v15.32Z"/>
        <path class="cls-1" d="M158.43,92.85c-1.14,0-2.18-.2-3.12-.59-.94-.4-1.74-.95-2.41-1.65-.67-.71-1.19-1.55-1.55-2.52-.37-.98-.55-2.04-.55-3.18s.19-2.2,.58-3.18c.39-.98,.92-1.82,1.61-2.53,.69-.71,1.5-1.26,2.44-1.65,.94-.4,1.97-.59,3.09-.59,.91,0,1.76,.14,2.55,.41,.79,.27,1.5,.65,2.13,1.15,.63,.49,1.16,1.1,1.58,1.81,.43,.72,.73,1.51,.9,2.38h-2.41c-.33-1.19-.92-2.11-1.77-2.75-.85-.64-1.86-.97-3.02-.97-.79,0-1.51,.15-2.16,.43-.65,.29-1.2,.69-1.67,1.21s-.82,1.15-1.07,1.88c-.25,.73-.38,1.53-.38,2.4s.13,1.67,.38,2.4c.25,.73,.61,1.36,1.07,1.88s1.02,.92,1.67,1.21c.65,.29,1.37,.43,2.16,.43,1.16,0,2.16-.31,3-.94,.84-.62,1.44-1.47,1.78-2.55h2.41c-.21,.83-.54,1.59-.99,2.26-.45,.68-.99,1.26-1.62,1.74s-1.35,.86-2.13,1.12c-.78,.26-1.62,.39-2.51,.39Z"/>
        <path class="cls-1" d="M170.36,91.6c-.55-.64-.83-1.59-.83-2.84v-9.63h-2.12v-1.89h2.15v-3.28h2.29v3.28h3.51v1.89h-3.54v9.23c0,.71,.15,1.27,.45,1.67,.3,.4,.83,.59,1.58,.59h1.54v1.94h-2.21c-1.33,0-2.28-.32-2.83-.96Z"/>
        <path class="cls-1" d="M184.88,92.85c-1.14,0-2.19-.2-3.15-.59-.96-.4-1.78-.95-2.48-1.65s-1.24-1.55-1.62-2.52c-.39-.98-.58-2.04-.58-3.18s.19-2.2,.58-3.18c.39-.98,.93-1.82,1.62-2.53,.7-.71,1.52-1.26,2.48-1.65,.96-.4,2.01-.59,3.15-.59s2.19,.2,3.15,.59c.96,.4,1.78,.95,2.48,1.65,.7,.71,1.24,1.55,1.64,2.53,.4,.98,.59,2.04,.59,3.18s-.2,2.2-.59,3.18c-.4,.98-.94,1.82-1.64,2.52-.7,.71-1.52,1.26-2.48,1.65-.96,.4-2.01,.59-3.15,.59Zm.03-2.03c.77,0,1.49-.14,2.16-.42s1.24-.69,1.73-1.21c.48-.53,.86-1.15,1.13-1.88,.27-.73,.41-1.53,.41-2.4s-.14-1.68-.41-2.41c-.27-.73-.65-1.36-1.13-1.88-.48-.53-1.06-.93-1.73-1.21-.67-.28-1.4-.42-2.19-.42s-1.52,.14-2.19,.42c-.67,.28-1.24,.68-1.71,1.21-.47,.53-.85,1.15-1.12,1.88-.27,.73-.41,1.53-.41,2.41s.14,1.68,.41,2.4c.27,.73,.65,1.36,1.13,1.88s1.06,.93,1.73,1.21,1.4,.42,2.19,.42Z"/>
        <path class="cls-1" d="M196.5,77.23h2.15l.06,2.76h.09c.91-1.84,2.4-2.76,4.47-2.76h.9v2.26h-1.28c-.52,0-1.03,.09-1.51,.26-.48,.17-.92,.46-1.31,.86-.39,.4-.7,.92-.93,1.58-.23,.66-.35,1.48-.35,2.47v7.89h-2.29v-15.32Z"/>
      </g>
      <g>
        <path class="cls-1" d="M19.33,0h18.07l19.75,57.16h-14.37l-3.7-11.51H17.82l-3.7,11.51H0L19.33,0Zm15.97,33.62l-1.09-3.45c-3.53-10.84-4.79-14.8-5.8-19.42h-.17c-1.09,5.3-3.28,12.27-5.55,19.42l-1.09,3.45h13.7Z"/>
        <path class="cls-1" d="M64.23,0h13.2V44.8h28.24v12.36h-41.44V0Z"/>
        <path class="cls-1" d="M114.01,0h40.01V11.85h-26.98v10.42h20.59v11.77h-20.59v11.27h27.99v11.85h-41.02V0Z"/>
        <path class="cls-1" d="M163.95,0h21.6l5.21,20.85c1.34,5.46,3.95,15.38,5.21,22.11h.34c1.09-4.79,2.44-10.51,4.96-20.76L206.57,0h21.18V57.16h-12.94v-19.84c0-7.65,.08-18.07,.42-23.62h-.25c-.84,5.21-3.61,15.8-5.72,23.54l-5.3,19.33h-16.48l-5.72-21.01c-2.19-7.65-4.03-14.96-5.63-21.85h-.25c.25,4.71,.5,13.03,.5,21.85v21.6h-12.44V0Z"/>
        <path class="cls-1" d="M240.21,0h12.27V57.16h-12.27V0Z"/>
        <path class="cls-1" d="M264.93,0h28.83c12.27,0,18.41,7.82,18.41,17.48,0,8.32-3.78,14.38-11.52,17.07l13.7,22.61h-15.3l-11.26-19.92h-9.75v19.92h-13.11V0Zm25.55,25.64c5.38,0,7.73-3.03,7.73-6.97,0-4.29-2.52-6.98-7.4-6.98h-12.78v13.95h12.44Z"/>
        <path class="cls-1" d="M336.89,0h18.07l19.75,57.16h-14.37l-3.7-11.51h-21.27l-3.7,11.51h-14.12L336.89,0Zm15.97,33.62l-1.09-3.45c-3.53-10.84-4.79-14.8-5.8-19.42h-.17c-1.09,5.3-3.28,12.27-5.55,19.42l-1.09,3.45h13.7Z"/>
      </g>
    </g>
  </g>
</svg>