<?xml version="1.0" encoding="UTF-8"?>
<svg id="Layer_2" data-name="Layer 2" xmlns="http://www.w3.org/2000/svg" viewBox="0 0 304.51 107.04">
  <defs>
    <style>
      .cls-1 {
        fill: #17244c;
      }
    </style>
  </defs>
  <g id="Layer_1-2" data-name="Layer 1">
    <g>
      <g>
        <path class="cls-1" d="M8.41,101.39c-1.27,0-2.41-.22-3.41-.66-1-.45-1.86-1.07-2.55-1.87l-.19,2.22H0v-23.32H2.44v8.88c.72-.85,1.6-1.5,2.63-1.95,1.04-.45,2.19-.68,3.46-.68,1.16,0,2.25,.2,3.25,.6,1,.4,1.87,.98,2.59,1.74,.72,.76,1.29,1.68,1.7,2.74s.62,2.27,.62,3.6c0,1.25-.2,2.41-.6,3.47-.4,1.07-.97,1.99-1.7,2.76s-1.6,1.38-2.62,1.81c-1.02,.43-2.14,.65-3.36,.65Zm-.22-2.22c.87,0,1.66-.16,2.38-.47,.72-.32,1.34-.76,1.86-1.33,.52-.57,.92-1.25,1.21-2.04s.43-1.66,.43-2.6-.14-1.82-.43-2.62c-.29-.8-.69-1.48-1.22-2.05-.53-.57-1.15-1.01-1.87-1.34-.72-.33-1.5-.49-2.35-.49-.91,0-1.73,.16-2.47,.49-.74,.33-1.37,.77-1.89,1.34-.52,.57-.92,1.25-1.21,2.05-.29,.8-.43,1.67-.43,2.62s.14,1.81,.43,2.6,.69,1.47,1.21,2.04c.52,.57,1.15,1.01,1.89,1.33,.74,.32,1.56,.47,2.47,.47Z"/>
        <path class="cls-1" d="M33.71,84.32l-6.69,18.66c-.3,.8-.61,1.46-.95,1.98-.34,.52-.72,.93-1.14,1.24-.42,.31-.9,.52-1.44,.65-.54,.13-1.15,.19-1.82,.19h-1.36v-2.22h1.05c.87,0,1.54-.15,2.01-.45s.88-.92,1.22-1.86l.54-1.41-6.88-16.78h2.76l3.55,9.01c.23,.59,.43,1.11,.6,1.55,.17,.44,.32,.85,.46,1.21,.14,.36,.26,.69,.36,.98,.11,.3,.21,.59,.32,.89h.1c.08-.3,.17-.58,.27-.86,.1-.27,.2-.56,.3-.87,.11-.31,.22-.63,.33-.98,.12-.35,.25-.76,.4-1.22l3.36-9.71h2.67Z"/>
        <path class="cls-1" d="M54.84,101.39c-1.54,0-2.95-.27-4.22-.82s-2.36-1.32-3.27-2.3c-.91-.98-1.62-2.16-2.13-3.52s-.76-2.86-.76-4.49,.25-3.12,.76-4.47,1.22-2.52,2.14-3.51c.92-.98,2.01-1.74,3.27-2.28,1.26-.54,2.64-.81,4.14-.81,2.56,0,4.7,.69,6.41,2.06,1.71,1.38,2.88,3.29,3.49,5.74h-2.76c-.51-1.78-1.39-3.14-2.63-4.08-1.25-.94-2.77-1.41-4.57-1.41-1.08,0-2.07,.21-2.98,.63-.91,.42-1.7,1.02-2.36,1.79-.67,.77-1.18,1.69-1.55,2.76-.37,1.07-.56,2.24-.56,3.51s.19,2.51,.57,3.6c.38,1.09,.91,2.03,1.59,2.81,.68,.78,1.49,1.39,2.44,1.82,.95,.43,2,.65,3.14,.65,1.76,0,3.24-.48,4.46-1.43,1.22-.95,2.07-2.38,2.55-4.28h2.67c-.25,1.21-.67,2.31-1.25,3.3-.58,1-1.29,1.84-2.13,2.54-.84,.7-1.8,1.24-2.89,1.62-1.09,.38-2.28,.57-3.57,.57Z"/>
        <path class="cls-1" d="M76.33,101.39c-1.25,0-2.4-.22-3.44-.65-1.05-.43-1.95-1.04-2.71-1.81s-1.35-1.69-1.78-2.76c-.42-1.07-.63-2.23-.63-3.47s.21-2.41,.63-3.47c.42-1.07,1.02-1.99,1.78-2.76,.76-.77,1.67-1.37,2.71-1.81,1.05-.43,2.19-.65,3.44-.65s2.4,.22,3.44,.65c1.05,.43,1.95,1.04,2.71,1.81,.76,.77,1.36,1.69,1.79,2.76,.43,1.07,.65,2.23,.65,3.47s-.22,2.41-.65,3.47c-.43,1.07-1.03,1.99-1.79,2.76-.76,.77-1.67,1.38-2.71,1.81-1.05,.43-2.19,.65-3.44,.65Zm.03-2.22c.85,0,1.63-.15,2.36-.46s1.36-.75,1.89-1.32c.53-.57,.94-1.26,1.24-2.06,.3-.8,.44-1.67,.44-2.63s-.15-1.83-.44-2.63c-.3-.8-.71-1.48-1.24-2.06-.53-.57-1.16-1.01-1.89-1.32-.73-.31-1.53-.46-2.4-.46s-1.67,.15-2.4,.46c-.73,.31-1.35,.75-1.87,1.32-.52,.57-.93,1.26-1.22,2.06-.3,.8-.44,1.67-.44,2.63s.15,1.83,.44,2.63c.3,.8,.71,1.48,1.24,2.06s1.16,1.01,1.89,1.32,1.53,.46,2.4,.46Z"/>
        <path class="cls-1" d="M89.04,84.32h2.25l.13,2.35h.1c.63-.89,1.43-1.56,2.4-2s2.03-.67,3.19-.67c.68,0,1.37,.1,2.09,.3,.72,.2,1.38,.55,1.98,1.03s1.1,1.15,1.49,1.98c.39,.84,.59,1.9,.59,3.19v10.57h-2.51v-10.12c0-1.67-.39-2.88-1.17-3.62-.78-.74-1.79-1.11-3.01-1.11-.68,0-1.32,.11-1.94,.32-.61,.21-1.15,.53-1.6,.97-.46,.43-.81,.97-1.08,1.62-.26,.65-.4,1.41-.4,2.3v9.64h-2.51v-16.75Z"/>
        <path class="cls-1" d="M109.56,96.22c.17,1.01,.63,1.8,1.4,2.36s1.94,.84,3.52,.84c1.25,0,2.23-.24,2.93-.73,.71-.49,1.06-1.19,1.06-2.13,0-1.08-.54-1.83-1.62-2.25-.38-.17-.79-.3-1.24-.38s-.99-.18-1.65-.29c-.74-.13-1.37-.24-1.89-.33-.52-.1-1.05-.24-1.6-.43-.3-.1-.6-.25-.92-.44s-.62-.44-.9-.75-.52-.68-.7-1.13c-.18-.44-.27-.97-.27-1.59,0-.74,.14-1.42,.43-2.03s.69-1.14,1.22-1.59c.53-.45,1.17-.79,1.92-1.03,.75-.24,1.6-.36,2.55-.36,.85,0,1.65,.1,2.41,.28,.76,.19,1.44,.49,2.05,.91,.6,.41,1.1,.95,1.49,1.6,.39,.66,.63,1.46,.71,2.41h-2.47c-.15-1.1-.59-1.91-1.33-2.44-.74-.53-1.72-.79-2.95-.79s-2.21,.28-2.82,.84c-.61,.56-.92,1.2-.92,1.92,0,.59,.16,1.06,.49,1.4,.33,.34,.75,.59,1.25,.76,.51,.17,1.08,.31,1.71,.43,.63,.12,1.26,.23,1.87,.33,.61,.11,1.26,.24,1.94,.4,.68,.16,1.27,.42,1.78,.78,.55,.34,.99,.8,1.32,1.39s.49,1.3,.49,2.13c0,1.63-.59,2.89-1.78,3.78-1.18,.89-2.78,1.33-4.79,1.33-2.33,0-4.06-.47-5.19-1.41-1.13-.94-1.78-2.21-1.95-3.79h2.44Z"/>
        <path class="cls-1" d="M126.16,100.02c-.6-.7-.9-1.73-.9-3.11v-10.53h-2.32v-2.06h2.35v-3.58h2.51v3.58h3.84v2.06h-3.87v10.09c0,.78,.16,1.39,.49,1.82,.33,.43,.9,.65,1.73,.65h1.68v2.13h-2.41c-1.46,0-2.49-.35-3.09-1.05Z"/>
        <path class="cls-1" d="M135.06,84.32h2.35l.06,3.01h.1c.99-2.01,2.62-3.01,4.89-3.01h.98v2.47h-1.4c-.57,0-1.12,.1-1.65,.29-.53,.19-1,.5-1.43,.94-.42,.43-.76,1.01-1.02,1.73-.25,.72-.38,1.62-.38,2.7v8.63h-2.51v-16.75Z"/>
        <path class="cls-1" d="M160.78,101.07h-2.28l-.13-2.35h-.1c-.63,.89-1.43,1.55-2.4,2-.96,.44-2.01,.66-3.16,.66-.68,0-1.38-.09-2.11-.28-.73-.19-1.4-.53-2-1.03-.6-.5-1.1-1.16-1.49-2-.39-.83-.59-1.9-.59-3.19v-10.57h2.51v10.12c0,.85,.11,1.56,.32,2.16,.21,.59,.5,1.08,.87,1.46,.37,.38,.81,.66,1.33,.84,.52,.18,1.08,.27,1.7,.27,.68,0,1.32-.11,1.92-.32,.6-.21,1.13-.53,1.59-.97,.45-.43,.81-.97,1.08-1.62,.26-.64,.4-1.41,.4-2.3v-9.65h2.54v16.75Z"/>
        <path class="cls-1" d="M173.22,101.39c-1.25,0-2.38-.22-3.41-.65-1.03-.43-1.9-1.04-2.63-1.81-.73-.77-1.3-1.69-1.7-2.76-.4-1.07-.6-2.23-.6-3.47s.21-2.41,.63-3.47c.42-1.07,1.01-1.99,1.76-2.76,.75-.77,1.64-1.37,2.67-1.81,1.03-.43,2.15-.65,3.38-.65,.99,0,1.92,.15,2.79,.44,.87,.3,1.64,.71,2.33,1.25,.69,.54,1.26,1.2,1.73,1.98,.46,.78,.79,1.65,.98,2.6h-2.63c-.36-1.3-1-2.3-1.94-3.01-.93-.7-2.03-1.06-3.3-1.06-.87,0-1.66,.16-2.36,.47-.71,.32-1.32,.76-1.82,1.33s-.9,1.25-1.17,2.05c-.28,.8-.41,1.67-.41,2.62s.14,1.82,.41,2.62c.27,.8,.67,1.48,1.17,2.05s1.12,1.01,1.82,1.33c.71,.32,1.5,.47,2.36,.47,1.27,0,2.36-.34,3.28-1.02s1.57-1.61,1.95-2.79h2.63c-.23,.91-.59,1.74-1.08,2.47-.49,.74-1.08,1.38-1.78,1.9s-1.48,.94-2.33,1.22c-.86,.28-1.77,.43-2.74,.43Z"/>
        <path class="cls-1" d="M186.26,100.02c-.6-.7-.9-1.73-.9-3.11v-10.53h-2.32v-2.06h2.35v-3.58h2.51v3.58h3.84v2.06h-3.87v10.09c0,.78,.16,1.39,.49,1.82,.33,.43,.9,.65,1.73,.65h1.68v2.13h-2.41c-1.46,0-2.49-.35-3.09-1.05Z"/>
        <path class="cls-1" d="M202.13,101.39c-1.25,0-2.4-.22-3.44-.65-1.05-.43-1.95-1.04-2.71-1.81-.76-.77-1.35-1.69-1.78-2.76-.42-1.07-.63-2.23-.63-3.47s.21-2.41,.63-3.47c.42-1.07,1.02-1.99,1.78-2.76,.76-.77,1.67-1.37,2.71-1.81,1.05-.43,2.19-.65,3.44-.65s2.4,.22,3.44,.65c1.05,.43,1.95,1.04,2.71,1.81,.76,.77,1.36,1.69,1.79,2.76,.43,1.07,.65,2.23,.65,3.47s-.22,2.41-.65,3.47c-.43,1.07-1.03,1.99-1.79,2.76s-1.67,1.38-2.71,1.81c-1.05,.43-2.19,.65-3.44,.65Zm.03-2.22c.85,0,1.63-.15,2.36-.46s1.36-.75,1.89-1.32c.53-.57,.94-1.26,1.24-2.06,.3-.8,.44-1.67,.44-2.63s-.15-1.83-.44-2.63c-.3-.8-.71-1.48-1.24-2.06-.53-.57-1.16-1.01-1.89-1.32-.73-.31-1.53-.46-2.4-.46s-1.67,.15-2.4,.46c-.73,.31-1.35,.75-1.87,1.32-.52,.57-.93,1.26-1.22,2.06-.3,.8-.44,1.67-.44,2.63s.15,1.83,.44,2.63c.3,.8,.71,1.48,1.24,2.06s1.16,1.01,1.89,1.32,1.53,.46,2.4,.46Z"/>
        <path class="cls-1" d="M214.84,84.32h2.35l.06,3.01h.1c.99-2.01,2.62-3.01,4.89-3.01h.98v2.47h-1.4c-.57,0-1.12,.1-1.65,.29-.53,.19-1,.5-1.43,.94-.42,.43-.76,1.01-1.02,1.73-.25,.72-.38,1.62-.38,2.7v8.63h-2.51v-16.75Z"/>
      </g>
      <g>
        <path class="cls-1" d="M0,.89H30.56c13.01,0,19.51,8.29,19.51,18.53,0,8.82-4.01,15.24-12.21,18.09l14.52,23.97h-16.22l-11.94-21.12H13.9v21.12H0V.89ZM27.09,28.07c5.7,0,8.2-3.21,8.2-7.4,0-4.54-2.67-7.39-7.84-7.39H13.9v14.79h13.19Z"/>
        <path class="cls-1" d="M58.64,30.92C58.64,13.01,71.29,0,90.54,0s31.72,13.01,31.72,30.92-12.56,31.45-31.72,31.45-31.9-13.19-31.9-31.45Zm49.09,.09c0-11.32-7.04-18.62-17.29-18.62s-17.29,7.31-17.29,18.62,7.04,18.98,17.29,18.98,17.29-7.4,17.29-18.98Z"/>
        <path class="cls-1" d="M132.61,.89h13.99V48.38h29.94v13.1h-43.93V.89Z"/>
        <path class="cls-1" d="M180.74,30.92c0-17.91,12.65-30.92,31.9-30.92s31.72,13.01,31.72,30.92-12.56,31.45-31.72,31.45-31.9-13.19-31.9-31.45Zm49.09,.09c0-11.32-7.04-18.62-17.29-18.62s-17.29,7.31-17.29,18.62,7.04,18.98,17.29,18.98,17.29-7.4,17.29-18.98Z"/>
        <path class="cls-1" d="M251.41,42.95h14.61c.89,5.34,6.42,8.19,13.63,8.19s10.96-2.67,10.96-6.77c0-2.05-1.07-4.19-3.39-5.17-2.23-.89-5.44-1.25-9.98-1.7-5.17-.53-11.32-1.25-15.95-3.56-4.9-2.4-8.37-6.5-8.37-14.08,0-12.03,9.36-19.87,24.24-19.87,13.37,0,24.68,5.7,26.55,19.33h-14.52c-1.25-5.97-6.24-8.11-12.56-8.11s-10.07,2.59-10.07,6.86c0,3.12,2.49,4.81,7.13,5.52,6.86,.89,13.28,1.34,19.07,3.12,5.61,1.78,11.76,6.51,11.76,15.95,0,13.1-10.25,19.69-25.75,19.69s-26.02-6.59-27.35-19.42Z"/>
      </g>
    </g>
  </g>
</svg>