<svg width="270" height="24" viewBox="0 0 270 24" fill="none" xmlns="http://www.w3.org/2000/svg">
<path d="M209.558 23.5001H214.91V5.2501H221.784V0.350098H202.684V5.2501H209.558V23.5001Z" fill="white"/>
<path d="M190.802 24C196.203 24 200.769 20.3 202.144 15.3H196.841C195.712 17.7 193.454 19.35 190.802 19.35C187.071 19.35 184.076 16.05 184.076 12C184.076 7.95005 187.071 4.70005 190.851 4.70005C193.552 4.70005 195.909 6.35005 196.989 8.90005H202.242C200.917 3.75005 196.301 0.0500488 190.851 0.0500488C184.37 0.0500488 179.067 5.40005 179.067 12C179.067 18.65 184.37 24 190.802 24Z" fill="white"/>
<path d="M165.712 23.9001C171.8 23.9001 175.778 19.8501 175.778 14.7501V0.350098H170.622V14.0001C170.622 17.8501 168.363 19.3001 165.908 19.3001C163.453 19.3001 161.146 17.8501 161.146 14.0001V0.350098H155.794V14.8501C155.745 19.5001 159.624 23.9001 165.712 23.9001Z" fill="white"/>
<path d="M143.519 10.75H137.578V5.05005H143.617C145.581 5.05005 146.563 6.15005 146.563 7.85005C146.563 9.50005 145.63 10.75 143.519 10.75ZM146.71 14.9501C151.178 13.7501 152.111 10.3 152.111 7.55005C152.111 3.45005 149.656 0.300049 144.746 0.300049H132.177V23.5H137.529V15.4501H141.162L146.956 23.5H153.093L146.71 14.9501Z" fill="white"/>
<path d="M117.103 23.5001H122.455V5.2501H129.28V0.350098H110.229V5.2501H117.103V23.5001Z" fill="white"/>
<path d="M99.231 23.85C105.123 23.85 109.002 21.35 109.002 16.25C109.002 12 106.301 10.5 102.423 9.85L97.758 9.05C95.3522 8.65 94.8121 7.9 94.8121 6.9C94.8121 5.3 96.1869 4.3 98.6418 4.3C100.9 4.3 102.717 5.1 103.208 7.4H108.658C108.02 2.4 103.846 0 98.6418 0C93.0445 0 89.6075 2.8 89.6075 7.2C89.6075 10.65 91.7188 12.95 95.8923 13.7L100.95 14.6C102.619 14.9 103.797 15.9 103.797 17.15C103.797 18.55 102.472 19.55 99.722 19.55C96.9234 19.55 94.8612 18.5 94.5666 16.45H89.0674C89.5584 21.3 93.29 23.85 99.231 23.85Z" fill="white"/>
<path d="M65.647 23.5001H70.557V8.8501L81.0643 23.5001H85.5324V0.350098H80.5733V14.3501L70.6061 0.350098H65.647V23.5001Z" fill="white"/>
<path d="M50.4749 19.3501C46.7433 19.3501 43.7482 16.0501 43.7482 12.0001C43.7482 7.9501 46.7433 4.7001 50.4749 4.7001C54.2064 4.7001 57.2015 7.9501 57.2015 12.0001C57.2015 16.1001 54.2064 19.3501 50.4749 19.3501ZM50.4749 0.100098C43.9937 0.100098 38.6909 5.4501 38.6909 12.0501C38.6909 18.6501 43.9937 24.0001 50.4749 24.0001C56.956 24.0001 62.2588 18.6501 62.2588 12.0501C62.2588 5.4501 56.956 0.100098 50.4749 0.100098Z" fill="#CB5845"/>
<path d="M26.0723 18.4H31.375L35.9413 12.05L31.375 5.69995H26.0723L30.7858 12.05L26.0723 18.4Z" fill="white"/>
<path d="M11.7352 24C17.1362 24 21.6533 20.3 23.0772 15.3H17.7745C16.6452 17.7 14.3866 19.35 11.7352 19.35C8.0036 19.35 5.00852 16.05 5.00852 12C5.00852 7.95005 8.0036 4.70005 11.7843 4.70005C14.4848 4.70005 16.8416 6.35005 17.9218 8.90005H23.1754C21.8497 3.75005 17.2344 0.0500488 11.7843 0.0500488C5.30311 0.0500488 0.000338246 5.40005 0.000338246 12C-0.0487615 18.65 5.25401 24 11.7352 24Z" fill="#388DDA"/>
<path d="M260.426 10.75H254.484V5.05005H260.524C262.488 5.05005 263.47 6.15005 263.47 7.85005C263.47 9.50005 262.537 10.75 260.426 10.75ZM263.617 14.9501C268.085 13.7501 269.018 10.3 269.018 7.55005C269.018 3.45005 266.563 0.300049 261.653 0.300049H249.083V23.5H254.435V15.4501H258.069L263.863 23.5H270L263.617 14.9501Z" fill="white"/>
<path d="M234.059 19.3501C230.327 19.3501 227.332 16.0501 227.332 12.0001C227.332 7.9501 230.327 4.7001 234.059 4.7001C237.791 4.7001 240.835 7.9501 240.835 12.0001C240.835 16.1001 237.791 19.3501 234.059 19.3501ZM234.108 0.100098C227.627 0.100098 222.324 5.4501 222.324 12.0501C222.324 18.6501 227.627 24.0001 234.108 24.0001C240.589 24.0001 245.892 18.6501 245.892 12.0501C245.843 5.4501 240.54 0.100098 234.108 0.100098Z" fill="white"/>
</svg>
