<svg width="268" height="25" viewBox="0 0 268 25" fill="none" xmlns="http://www.w3.org/2000/svg">
<path d="M208.14 23.9043H213.441V5.80643H220.248V0.947266H201.333V5.80643H208.14V23.9043Z" fill="white"/>
<path d="M189.565 24.4003C194.914 24.4003 199.436 20.7312 200.798 15.7728H195.546C194.428 18.1528 192.191 19.7891 189.565 19.7891C185.869 19.7891 182.903 16.5166 182.903 12.5003C182.903 8.48407 185.869 5.26115 189.614 5.26115C192.288 5.26115 194.622 6.8974 195.692 9.42615H200.895C199.582 4.31907 195.011 0.649902 189.614 0.649902C183.195 0.649902 177.943 5.95532 177.943 12.5003C177.943 19.0949 183.195 24.4003 189.565 24.4003Z" fill="white"/>
<path d="M164.716 24.301C170.746 24.301 174.685 20.2848 174.685 15.2273V0.947266H169.579V14.4835C169.579 18.3014 167.342 19.7393 164.911 19.7393C162.48 19.7393 160.194 18.3014 160.194 14.4835V0.947266H154.894V15.3264C154.845 19.9377 158.687 24.301 164.716 24.301Z" fill="white"/>
<path d="M142.737 11.2604H136.853V5.60788H142.834C144.779 5.60788 145.752 6.69871 145.752 8.38455C145.752 10.0208 144.828 11.2604 142.737 11.2604ZM145.898 15.4254C150.323 14.2354 151.247 10.8141 151.247 8.08704C151.247 4.02121 148.815 0.897461 143.953 0.897461H131.504V23.9041H136.804V15.9212H140.403L146.141 23.9041H152.219L145.898 15.4254Z" fill="white"/>
<path d="M116.576 23.9043H121.876V5.80643H128.635V0.947266H109.768V5.80643H116.576V23.9043Z" fill="white"/>
<path d="M98.8754 24.2513C104.711 24.2513 108.552 21.7722 108.552 16.7147C108.552 12.5001 105.878 11.0126 102.036 10.368L97.4165 9.57468C95.0338 9.17801 94.4989 8.43426 94.4989 7.4426C94.4989 5.85593 95.8605 4.86426 98.2918 4.86426C100.529 4.86426 102.328 5.6576 102.814 7.93843H108.212C107.58 2.9801 103.446 0.600098 98.2918 0.600098C92.7484 0.600098 89.3445 3.37677 89.3445 7.7401C89.3445 11.1613 91.4354 13.4422 95.5687 14.1859L100.577 15.0784C102.231 15.3759 103.398 16.3676 103.398 17.6072C103.398 18.9955 102.085 19.9872 99.3616 19.9872C96.5899 19.9872 94.5476 18.9459 94.2558 16.913H88.8096C89.2958 21.7226 92.9915 24.2513 98.8754 24.2513Z" fill="white"/>
<path d="M65.6145 23.9043H70.4772V9.37643L80.8834 23.9043H85.3084V0.947266H80.3971V14.8306L70.5258 0.947266H65.6145V23.9043Z" fill="white"/>
<path d="M50.5889 19.7888C46.8933 19.7888 43.927 16.5163 43.927 12.5001C43.927 8.4838 46.8933 5.26089 50.5889 5.26089C54.2846 5.26089 57.2508 8.4838 57.2508 12.5001C57.2508 16.5659 54.2846 19.7888 50.5889 19.7888ZM50.5889 0.699219C44.1702 0.699219 38.9185 6.00464 38.9185 12.5496C38.9185 19.0946 44.1702 24.4001 50.5889 24.4001C57.0077 24.4001 62.2594 19.0946 62.2594 12.5496C62.2594 6.00464 57.0077 0.699219 50.5889 0.699219Z" fill="white"/>
<path d="M26.4207 18.8466H31.6724L36.1947 12.5495L31.6724 6.25244H26.4207L31.0888 12.5495L26.4207 18.8466Z" fill="white"/>
<path d="M12.2223 24.4003C17.5712 24.4003 22.0449 20.7312 23.4551 15.7728H18.2034C17.085 18.1528 14.8481 19.7891 12.2223 19.7891C8.52663 19.7891 5.56038 16.5166 5.56038 12.5003C5.56038 8.48407 8.52663 5.26115 12.2709 5.26115C14.9454 5.26115 17.2795 6.8974 18.3493 9.42615H23.5524C22.2394 4.31907 17.6685 0.649902 12.2709 0.649902C5.85214 0.649902 0.600433 5.95532 0.600433 12.5003C0.551806 19.0949 5.80352 24.4003 12.2223 24.4003Z" fill="white"/>
<path d="M258.518 11.2604H252.634V5.60788H258.615C260.56 5.60788 261.533 6.69871 261.533 8.38455C261.533 10.0208 260.609 11.2604 258.518 11.2604ZM261.679 15.4254C266.104 14.2354 267.028 10.8141 267.028 8.08704C267.028 4.02121 264.596 0.897461 259.734 0.897461H247.285V23.9041H252.586V15.9212H256.184L261.922 23.9041H268L261.679 15.4254Z" fill="white"/>
<path d="M232.405 19.7888C228.709 19.7888 225.743 16.5163 225.743 12.5001C225.743 8.4838 228.709 5.26089 232.405 5.26089C236.101 5.26089 239.116 8.4838 239.116 12.5001C239.116 16.5659 236.101 19.7888 232.405 19.7888ZM232.454 0.699219C226.035 0.699219 220.783 6.00463 220.783 12.5496C220.783 19.0946 226.035 24.4001 232.454 24.4001C238.872 24.4001 244.124 19.0946 244.124 12.5496C244.076 6.00463 238.824 0.699219 232.454 0.699219Z" fill="white"/>
</svg>
